<svg id="archive" xmlns="http://www.w3.org/2000/svg" width="45.543" height="45.543" viewBox="0 0 45.543 45.543">
  <path id="Path_4164" data-name="Path 4164" d="M8.095,188.006l-3.169,2.669L0,188.006,5.426,180l2.669,2.669Zm0,0" transform="translate(0 -163.989)" fill="#47568c"/>
  <path id="Path_4165" data-name="Path 4165" d="M421,188.006l3.169,2.669,4.926-2.669L423.669,180,421,182.669Zm0,0" transform="translate(-383.552 -163.989)" fill="#2c3b73"/>
  <path id="Path_4166" data-name="Path 4166" d="M145.017,0V14.677H121V2.669h11.288l.721-1.067L134.076,0Zm0,0" transform="translate(-110.237)" fill="#ffda2d"/>
  <path id="Path_4167" data-name="Path 4167" d="M268.008,0V14.677H256V1.6L257.067,0Zm0,0" transform="translate(-233.229)" fill="#fdbf00"/>
  <path id="Path_4168" data-name="Path 4168" d="M120.354,60V74.677H91V62.669h16.625L109.413,60Zm0,0" transform="translate(-82.905 -54.663)" fill="#fdbf00"/>
  <path id="Path_4169" data-name="Path 4169" d="M270.677,60V74.677H256V62.669h1.948L259.736,60Zm0,0" transform="translate(-233.229 -54.663)" fill="#ff9100"/>
  <path id="Path_4170" data-name="Path 4170" d="M95.691,120v20.014H61V122.669H82.962L84.75,120Zm0,0" transform="translate(-55.574 -109.326)" fill="#ffda2d"/>
  <path id="Path_4171" data-name="Path 4171" d="M273.345,120v20.014H256V122.669h4.616L262.4,120Zm0,0" transform="translate(-233.229 -109.326)" fill="#fdbf00"/>
  <path id="Path_4172" data-name="Path 4172" d="M45.543,270v21.526H0V270H17.515l.88,2.669h8.753l.88-2.669Zm0,0" transform="translate(0 -245.983)" fill="#61729b"/>
  <path id="Path_4173" data-name="Path 4173" d="M278.771,270v21.526H256V272.669h4.376l.88-2.669Zm0,0" transform="translate(-233.229 -245.983)" fill="#47568c"/>
  <path id="Path_4174" data-name="Path 4174" d="M181,360h13.343v2.669H181Zm0,0" transform="translate(-164.9 -327.978)" fill="#ffda2d"/>
  <path id="Path_4175" data-name="Path 4175" d="M256,360h6.671v2.669H256Zm0,0" transform="translate(-233.229 -327.978)" fill="#fdbf00"/>
</svg>
