<svg xmlns="http://www.w3.org/2000/svg" width="43.263" height="41.463" viewBox="0 0 43.263 41.463">
  <g id="checkmark" transform="translate(-0.001 -0.014)">
    <path id="Path_1436" data-name="Path 1436" d="M37.317,20.933l-.968-2.751L25.907,28.625a5.405,5.405,0,0,1-7.646,0L10.6,20.964a5.407,5.407,0,1,1,7.646-7.646l3.838,3.836L32.366,6.871l-.692-1.965L31.354,3A3.565,3.565,0,0,0,25.763.683L20.754,4.31,15.688.674A3.564,3.564,0,0,0,10.108,3L9.127,9.1l-6.141,1.02A3.565,3.565,0,0,0,.671,15.715L4.3,20.724.661,25.789A3.564,3.564,0,0,0,2.982,31.37l6.105.982,1.02,6.139A3.563,3.563,0,0,0,15.7,40.808l5.009-3.627,5.053,3.627A3.566,3.566,0,0,0,31.354,38.5l.982-6.105,6.139-1.02a3.563,3.563,0,0,0,2.316-5.593Zm0,0" transform="translate(0)" fill="#ffc107"/>
    <path id="Path_1437" data-name="Path 1437" d="M158.814,65.689a1.8,1.8,0,0,1-1.274-.528L149.879,57.5a1.8,1.8,0,1,1,2.549-2.549l6.386,6.386,18.1-18.1a1.8,1.8,0,0,1,2.549,2.549L160.088,65.161A1.8,1.8,0,0,1,158.814,65.689Zm0,0" transform="translate(-136.73 -39.085)" fill="#607d8b"/>
  </g>
</svg>
