<svg xmlns="http://www.w3.org/2000/svg" width="295.693" height="294.216" viewBox="0 0 295.693 294.216">
  <g id="coming-soon_1_" data-name="coming-soon (1)" transform="translate(0 -1.278)">
    <g id="Group_24790" data-name="Group 24790" transform="translate(4.548 5.823)">
      <g id="Group_24789" data-name="Group 24789">
        <g id="Group_24780" data-name="Group 24780" transform="translate(22.125 194.487)">
          <path id="Path_4119" data-name="Path 4119" d="M46.185,345.988v85.481l53.077-44.752c5.648,4.075,31.853,20.92,54.748,23.248,28.672,2.916,50.771-2.762,69.39-11.71s39.938-28.557,51.324-52.346Z" transform="translate(-46.185 -345.908)" fill="#c4e5f9"/>
        </g>
        <g id="Group_24781" data-name="Group 24781" transform="translate(22.124 194.487)">
          <path id="Path_4120" data-name="Path 4120" d="M274.681,345.908c-11.957,18.562-29.379,33.468-44.925,40.939-18.619,8.948-40.718,14.626-69.39,11.71-22.894-2.329-49.1-18.8-54.748-22.876L58.132,415.719V345.984l-11.948,0v85.481l53.077-44.752c5.648,4.075,31.853,20.919,54.748,23.248,28.672,2.916,50.771-2.762,69.39-11.71s39.938-28.557,51.324-52.346Z" transform="translate(-46.184 -345.908)" fill="#a4d7f5"/>
        </g>
        <g id="Group_24782" data-name="Group 24782" transform="translate(38.325)">
          <path id="Path_4121" data-name="Path 4121" d="M283.685,73.778c-12.078-22.591-29.825-40.344-51.9-51.768v-.242c-31.639-16.826-74.007-16.826-105.646,0v.242c-22.077,11.425-39.824,29.177-51.9,51.768Z" transform="translate(-74.236 -9.148)" fill="#c4e5f9"/>
        </g>
        <g id="Group_24783" data-name="Group 24783" transform="translate(38.325 8.982)">
          <path id="Path_4122" data-name="Path 4122" d="M97.351,66.918A124.06,124.06,0,0,1,133.781,24.7c-2.6,1.113-5.16,2.318-7.644,3.638v.242C104.061,40,86.314,57.757,74.236,80.348H283.685a131.3,131.3,0,0,0-8.249-13.43H97.351Z" transform="translate(-74.236 -24.7)" fill="#a4d7f5"/>
        </g>
        <g id="Group_24784" data-name="Group 24784" transform="translate(82.886 19.845)">
          <path id="Path_4123" data-name="Path 4123" d="M156.489,63.769l-5.094-7.007c2.948-2.143,5.195-3.707,7.285-5.071l4.734,7.255C161.45,60.228,159.314,61.715,156.489,63.769Zm13.986-8.933-3.9-7.737a70.136,70.136,0,0,1,8.487-3.59l2.861,8.177a61.618,61.618,0,0,0-7.45,3.15Z" transform="translate(-151.395 -43.51)" fill="#fff"/>
        </g>
        <g id="Group_24785" data-name="Group 24785" transform="translate(0 64.309)">
          <path id="Path_4124" data-name="Path 4124" d="M7.875,120.5h286.6V250.443H7.875Z" transform="translate(-7.875 -120.5)" fill="#f8e868"/>
        </g>
        <g id="Group_24786" data-name="Group 24786" transform="translate(0 64.309)">
          <path id="Path_4125" data-name="Path 4125" d="M20.665,236.575V120.5H7.875V250.443h286.6V236.575Z" transform="translate(-7.875 -120.5)" fill="#dec80e"/>
        </g>
        <g id="Group_24787" data-name="Group 24787" transform="translate(234.259 151.226)">
          <path id="Path_4126" data-name="Path 4126" d="M413.5,271h8.663v8.663H413.5Z" transform="translate(-413.5 -271)" fill="#fff"/>
        </g>
        <g id="Group_24788" data-name="Group 24788" transform="translate(43.675 151.226)">
          <path id="Path_4127" data-name="Path 4127" d="M83.5,271h8.663v8.663H83.5Z" transform="translate(-83.5 -271)" fill="#fff"/>
        </g>
      </g>
    </g>
    <g id="Group_24791" data-name="Group 24791" transform="translate(0 1.278)">
      <path id="Path_4128" data-name="Path 4128" d="M181.472,54.693a61.668,61.668,0,0,1,7.461-3.154l-2.865-8.189a70.309,70.309,0,0,0-8.5,3.6Z" transform="translate(-75.018 -19.052)"/>
      <path id="Path_4129" data-name="Path 4129" d="M156.342,69.633c2.829-2.057,4.968-3.547,6.936-4.83l-4.741-7.266c-2.094,1.366-4.344,2.933-7.3,5.079Z" transform="translate(-63.895 -25.046)"/>
      <path id="Path_4130" data-name="Path 4130" d="M248.365,450.768l-.4,8.666c1.543.07,3.1.106,4.639.106,1.488,0,2.992-.022,4.47-.066l-.256-8.672C254.035,450.886,251.188,450.9,248.365,450.768Z" transform="translate(-104.76 -191.176)"/>
      <path id="Path_4131" data-name="Path 4131" d="M295.693,65.767H255.57a130.256,130.256,0,0,0-44.721-46.58l-4.542,7.392a121.133,121.133,0,0,1,39.172,39.189H50.179C71.78,31.138,108.493,9.954,147.83,9.954A110.251,110.251,0,0,1,198.522,22.2l3.953-7.723a118.842,118.842,0,0,0-54.644-13.2A120.322,120.322,0,0,0,83.507,20a130.445,130.445,0,0,0-43.42,45.766H0V96.42H8.676V74.442H287.018V195.9H8.676V105.1H0v99.48H22.163v90.918l57.728-48.676c17.191,11.829,35.794,19.371,54,21.865l1.178-8.6c-18.675-2.454-38.521-11.341-55.627-24.247l-48.6,41.565V204.576H247.655c-18.3,32.593-49.064,52.347-87.3,55.831l.787,8.64c22.187-2.022,42.052-9.108,59.042-21.059A118.625,118.625,0,0,0,257.5,204.576h38.193Z" transform="translate(0 -1.278)"/>
      <path id="Path_4132" data-name="Path 4132" d="M74.883,159.546h8.692V150.87H74.883a21.726,21.726,0,0,0,0,43.452l8.7-.016-.016-8.66h-8.66C57.6,185.046,57.563,160.218,74.883,159.546Z" transform="translate(-22.457 -64.477)"/>
      <path id="Path_4133" data-name="Path 4133" d="M412.878,159.546h13.03V150.87h-13.03a21.714,21.714,0,1,0,.04,43.428h12.971V168.307H408.607v8.676h8.614l.008,8.656-4.326.008h-.025a13.051,13.051,0,0,1,0-26.1Z" transform="translate(-165.252 -64.477)"/>
      <path id="Path_4134" data-name="Path 4134" d="M286,151.058h8.676v43.365H286Z" transform="translate(-120.829 -64.556)"/>
      <path id="Path_4135" data-name="Path 4135" d="M342.134,178.429l-17.809-27.461h-8.278v43.343h8.676V167.526l17.324,26.714h8.762V151.02h-8.676Z" transform="translate(-133.522 -64.518)"/>
      <path id="Path_4136" data-name="Path 4136" d="M138.126,194.306a17.371,17.371,0,0,0,17.351-17.351v-8.733a17.351,17.351,0,0,0-34.7,0v8.733A17.371,17.371,0,0,0,138.126,194.306Zm-8.676-26.085a8.676,8.676,0,0,1,17.351,0v8.733a8.676,8.676,0,0,1-17.351,0Z" transform="translate(-51.024 -64.477)"/>
      <path id="Path_4137" data-name="Path 4137" d="M217.691,165.605l-13.06-14.637h-8.842v43.417h8.676V163.813L217.7,178.648l12.815-14.408v30.145h8.676V150.968h-8.48Z" transform="translate(-82.716 -64.518)"/>
      <path id="Path_4138" data-name="Path 4138" d="M138.1,275.842H120.615v8.676h17.522c17.076-.613,17.025-25.471-.046-26.012l-4.424,0c-5.626-.154-5.619-8.389,0-8.535h17.344V241.29H133.67a12.944,12.944,0,0,0-.013,25.887l4.425,0C143.716,267.322,143.724,275.681,138.1,275.842Z" transform="translate(-50.957 -102.677)"/>
      <path id="Path_4139" data-name="Path 4139" d="M188.267,267.568a17.351,17.351,0,1,0,34.7,0v-8.733a17.351,17.351,0,1,0-34.7,0Zm8.676-8.734a8.676,8.676,0,0,1,17.351,0v8.733a8.676,8.676,0,0,1-17.351,0Z" transform="translate(-79.538 -102.758)"/>
      <path id="Path_4140" data-name="Path 4140" d="M263.461,258.833v8.733a17.351,17.351,0,1,0,34.7,0v-8.733a17.351,17.351,0,1,0-34.7,0Zm8.676,0a8.676,8.676,0,1,1,17.351,0v8.733a8.676,8.676,0,1,1-17.351,0Z" transform="translate(-111.306 -102.758)"/>
      <path id="Path_4141" data-name="Path 4141" d="M364.757,268.673l-17.809-27.461h-8.278v43.344h8.676V257.77l17.324,26.714h8.762v-43.22h-8.676Z" transform="translate(-143.08 -102.644)"/>
      <path id="Path_4142" data-name="Path 4142" d="M0,0H25.252V8.676H0Z" transform="translate(240.22 21.559) rotate(-46.782)"/>
      <path id="Path_4143" data-name="Path 4143" d="M0,0H25.252V8.676H0Z" transform="translate(264.145 48.786) rotate(-30.747)"/>
      <path id="Path_4144" data-name="Path 4144" d="M0,0H25.252V8.676H0Z" transform="matrix(0.78, -0.626, 0.626, 0.78, 252.9, 34.201)"/>
      <path id="Path_4145" data-name="Path 4145" d="M0,0H8.676V25.252H0Z" transform="translate(32.68 9.209) rotate(-43.218)"/>
      <path id="Path_4146" data-name="Path 4146" d="M0,0H8.676V25.252H0Z" transform="translate(6.097 43.185) rotate(-59.253)"/>
      <path id="Path_4147" data-name="Path 4147" d="M0,0H8.676V25.252H0Z" transform="matrix(0.626, -0.78, 0.78, 0.626, 18.537, 25.104)"/>
      <path id="Path_4148" data-name="Path 4148" d="M0,0H25.252V8.676H0Z" transform="translate(122.288 237.497) rotate(-82.008)"/>
      <path id="Path_4149" data-name="Path 4149" d="M0,0H8.676V25.252H0Z" transform="translate(161.894 214.304) rotate(-7.992)"/>
      <path id="Path_4150" data-name="Path 4150" d="M248.526,372.716H257.2v25.252h-8.676Z" transform="translate(-104.996 -158.201)"/>
      <path id="Path_4151" data-name="Path 4151" d="M413.731,271.174h8.676v8.676h-8.676Z" transform="translate(-174.791 -115.302)"/>
      <path id="Path_4152" data-name="Path 4152" d="M83.247,271.174h8.676v8.676H83.247Z" transform="translate(-35.17 -115.302)"/>
    </g>
  </g>
</svg>
