<svg xmlns="http://www.w3.org/2000/svg" width="21.352" height="28.44" viewBox="0 0 21.352 28.44">
  <g id="delete" transform="translate(-63.818)">
    <g id="Group_24720" data-name="Group 24720" transform="translate(63.818 0)">
      <path id="Path_4058" data-name="Path 4058" d="M310.337,84.493,305.1,86.036a1.39,1.39,0,0,0-.932,1.312v2.345a.833.833,0,0,0,.833.833h6.333a.833.833,0,0,0,.833-.833V85.808A1.39,1.39,0,0,0,310.337,84.493Z" transform="translate(-290.821 -79.73)" fill="#ff5e94"/>
      <path id="Path_4059" data-name="Path 4059" d="M160.161,164.371v15.7a3.615,3.615,0,0,0,3.611,3.611h8.777a3.615,3.615,0,0,0,3.611-3.611v-15.7Z" transform="translate(-154.809 -155.241)" fill="#9dcfff"/>
      <path id="Path_4060" data-name="Path 4060" d="M304.172,164.371v19.31h4.388a3.615,3.615,0,0,0,3.611-3.611v-15.7Z" transform="translate(-290.821 -155.241)" fill="#72bbff"/>
      <g id="Group_24718" data-name="Group 24718" transform="translate(8.81 12.963)">
        <path id="Path_4061" data-name="Path 4061" d="M223.263,233.376a.833.833,0,0,0-.833.833v9.977a.833.833,0,0,0,1.667,0v-9.977A.833.833,0,0,0,223.263,233.376Z" transform="translate(-222.43 -233.376)" fill="#5a5a5a"/>
        <path id="Path_4062" data-name="Path 4062" d="M290,233.376a.833.833,0,0,0-.833.833v9.977a.833.833,0,0,0,1.667,0v-9.977A.833.833,0,0,0,290,233.376Z" transform="translate(-285.463 -233.376)" fill="#5a5a5a"/>
      </g>
      <g id="Group_24719" data-name="Group 24719" transform="translate(13.351 12.963)">
        <path id="Path_4063" data-name="Path 4063" d="M305,234.213v9.977a.834.834,0,0,1-.833.833V233.38A.833.833,0,0,1,305,234.213Z" transform="translate(-304.171 -233.38)" fill="#444"/>
        <path id="Path_4064" data-name="Path 4064" d="M356.744,233.376a.833.833,0,0,0-.833.833v9.977a.833.833,0,1,0,1.667,0v-9.977A.833.833,0,0,0,356.744,233.376Z" transform="translate(-353.037 -233.376)" fill="#444"/>
      </g>
      <path id="Path_4065" data-name="Path 4065" d="M82.3,12.368h0a2.227,2.227,0,0,0-2.747.314h0l-1.532,1.531L76.49,15.746a2.224,2.224,0,0,0,0,3.142l.786.786,1.128-.117.05-1.062-.785-.785a.556.556,0,0,1,0-.785L79.2,15.392l1.531-1.532h0a.555.555,0,0,1,.785,0l.786.786,1.03-.171.148-1.007A7.117,7.117,0,0,0,82.3,12.368Z" transform="translate(-75.172 -11.364)" fill="#5a5a5a"/>
      <path id="Path_4066" data-name="Path 4066" d="M119.4,12.367h0a2.226,2.226,0,0,0-2.747.314l-1.532,1.531,1.179,1.179,1.532-1.532a.555.555,0,0,1,.785,0l.786.786,1.179-1.178A7,7,0,0,0,119.4,12.367Z" transform="translate(-112.27 -11.364)" fill="#444"/>
      <path id="Path_4067" data-name="Path 4067" d="M77.9,2.062,76.412.569a1.947,1.947,0,0,0-2.75,0L64.386,9.845a1.947,1.947,0,0,0,0,2.75l1.493,1.493a.833.833,0,0,0,1.178,0L77.9,3.24a.833.833,0,0,0,0-1.178Z" transform="translate(-63.818 -0.001)" fill="#3ba9ff"/>
      <path id="Path_4068" data-name="Path 4068" d="M164.937.569l1.493,1.493a.833.833,0,0,1,0,1.178l-5.423,5.423L157.55,5.206,162.188.569a1.946,1.946,0,0,1,2.75,0Z" transform="translate(-152.344 0)" fill="#0081ff"/>
    </g>
  </g>
</svg>
