<svg xmlns="http://www.w3.org/2000/svg" width="27.869" height="28.749" viewBox="0 0 27.869 28.749">
  <g id="Layer_32" transform="translate(0)">
    <path id="Path_3862" data-name="Path 3862" d="M86.821,2.5H79.164A1.866,1.866,0,0,0,77.3,4.364V7.631A1.866,1.866,0,0,0,79.164,9.5H81.14a.688.688,0,0,1,.573.3l1.112,1.7a.2.2,0,0,0,.269.056.135.135,0,0,0,.056-.056l1.112-1.7a.674.674,0,0,1,.573-.3H86.81a1.866,1.866,0,0,0,1.864-1.864V4.364A1.85,1.85,0,0,0,86.821,2.5Z" transform="translate(-69.058 -2.214)" fill="#6dcc6d"/>
    <path id="Path_3863" data-name="Path 3863" d="M179.95,32.7h-5.592a1.255,1.255,0,0,0-.719.213V34.44a1.858,1.858,0,0,1-.64,1.4v.606a1.373,1.373,0,0,0,1.359,1.37h1.448a.506.506,0,0,1,.415.225l.82,1.235a.157.157,0,0,0,.2.045c.011-.011.034-.022.045-.045l.82-1.235a.506.506,0,0,1,.415-.225h1.448a1.359,1.359,0,0,0,1.359-1.37V34.07A1.408,1.408,0,0,0,179.95,32.7Z" transform="translate(-154.012 -29.023)" fill="#ffcd29"/>
    <path id="Path_3864" data-name="Path 3864" d="M16.669,34.44V32.913a1.346,1.346,0,0,0-.719-.213H10.359A1.373,1.373,0,0,0,9,34.07v2.392a1.373,1.373,0,0,0,1.359,1.37h1.448a.506.506,0,0,1,.415.225l.82,1.235a.157.157,0,0,0,.2.045c.011-.011.034-.022.045-.045l.82-1.235a.506.506,0,0,1,.415-.225h1.448a1.375,1.375,0,0,0,1.37-1.37v-.606A1.82,1.82,0,0,1,16.669,34.44Z" transform="translate(-8.426 -29.023)" fill="#55acd5"/>
    <path id="Path_3865" data-name="Path 3865" d="M101.326,92.439a1.556,1.556,0,0,0-.8.225A1.576,1.576,0,0,0,99.2,91.9h-.8A2.815,2.815,0,0,0,95.6,94.707v1.258a1.131,1.131,0,0,1,.876-.236v-.135a.149.149,0,0,1,.146-.146h.034a2.936,2.936,0,0,0,2.942-.966.134.134,0,0,1,.2-.022l.011.011a2.81,2.81,0,0,0,1.954.707.139.139,0,0,1,.135.146v.4a1.139,1.139,0,0,1,.966.3V93.988A1.543,1.543,0,0,0,101.326,92.439Z" transform="translate(-85.303 -81.576)" fill="#6d6c6b"/>
    <path id="Path_3866" data-name="Path 3866" d="M21.409,104.8a3.017,3.017,0,0,0-3.009,3.009v2.077a2.963,2.963,0,0,0,.269,1.246.765.765,0,0,0,.707.449h1.156v-.225a2.1,2.1,0,0,1-1.156-1.909v-.943a.249.249,0,0,1,.247-.247H19.7a2.06,2.06,0,0,0,1.617-.775.248.248,0,0,1,.348-.034l.034.034a2.06,2.06,0,0,0,1.617.775h0a.24.24,0,0,1,.247.236h0v.988a2.113,2.113,0,0,1-1.1,1.841v.258h.966a.783.783,0,0,0,.707-.449,2.835,2.835,0,0,0,.269-1.246v-2.077A3.007,3.007,0,0,0,21.409,104.8Z" transform="translate(-16.771 -93.027)" fill="#898989"/>
    <path id="Path_3867" data-name="Path 3867" d="M186.919,101.5A2.834,2.834,0,0,0,184,104.228v.932a.962.962,0,0,1,.494-.135.641.641,0,0,1,.146.011v-.056s.629-.348.629-.887v-.011a.438.438,0,0,1,.438-.438.311.311,0,0,1,.1.011,5.194,5.194,0,0,0,2.2,0,.448.448,0,0,1,.539.314.311.311,0,0,1,.011.1v.011c0,.528.629.887.629.887v.056a.64.64,0,0,1,.146-.011.961.961,0,0,1,.494.135v-.932A2.823,2.823,0,0,0,186.919,101.5Z" transform="translate(-163.777 -90.098)" fill="#e9e9ea"/>
    <path id="Path_3868" data-name="Path 3868" d="M38.332,163.258h0a2.073,2.073,0,0,1-.932-.225v.775l.326.943a.135.135,0,0,0,.135.09h1.011a.146.146,0,0,0,.135-.09l.326-.943V163A2.07,2.07,0,0,1,38.332,163.258Z" transform="translate(-33.637 -144.693)" fill="#f9d0b4"/>
    <path id="Path_3869" data-name="Path 3869" d="M230.357,132.933a.741.741,0,0,0-.157.011c0,.045.011.09.011.146v1.471a.64.64,0,0,1-.011.146.69.69,0,0,0,.157.011.895.895,0,0,0,.124-1.785.231.231,0,0,0-.124,0Z" transform="translate(-204.79 -117.995)" fill="#f9d0b4"/>
    <path id="Path_3870" data-name="Path 3870" d="M180.984,133.04a.642.642,0,0,1,.011-.146.69.69,0,0,0-.157-.011.895.895,0,0,0-.124,1.785h.124a.741.741,0,0,0,.157-.011c0-.045-.011-.09-.011-.146Z" transform="translate(-160.121 -117.956)" fill="#f9d0b4"/>
    <path id="Path_3871" data-name="Path 3871" d="M193.719,121.138v-.011a.438.438,0,0,0-.438-.438.311.311,0,0,0-.1.011,5.193,5.193,0,0,1-2.2,0,.448.448,0,0,0-.539.314.311.311,0,0,0-.011.1v.011c0,.528-.629.887-.629.887v1.628a2.283,2.283,0,0,0,4.559.045v-1.673A1.166,1.166,0,0,1,193.719,121.138Z" transform="translate(-168.926 -107.131)" fill="#f9d0b4"/>
    <path id="Path_3872" data-name="Path 3872" d="M151.98,125.9a.966.966,0,0,0-.18.011c0,.056.011.124.011.18v1.875a.966.966,0,0,1-.011.18,1.132,1.132,0,0,0,.371-2.234,1.155,1.155,0,0,0-.191-.011Z" transform="translate(-135.193 -111.758)" fill="#f9d0b4"/>
    <path id="Path_3873" data-name="Path 3873" d="M93.172,126.06a.966.966,0,0,1,.011-.18,1.132,1.132,0,0,0-.371,2.234,1.091,1.091,0,0,0,.382,0c0-.056-.011-.124-.011-.18Z" transform="translate(-81.987 -111.727)" fill="#f9d0b4"/>
    <path id="Path_3874" data-name="Path 3874" d="M109.012,115.32a.156.156,0,0,0-.135-.146,2.863,2.863,0,0,1-1.954-.707.142.142,0,0,0-.2,0l-.011.011a2.941,2.941,0,0,1-2.942.966.143.143,0,0,0-.168.112v2.223a2.712,2.712,0,0,0,5.423,0v-2.414A.085.085,0,0,1,109.012,115.32Z" transform="translate(-92.405 -101.572)" fill="#f9d0b4"/>
    <path id="Path_3875" data-name="Path 3875" d="M118.013,165.837h0a2.717,2.717,0,0,1-1.213-.292v1l.427,1.224a.183.183,0,0,0,.168.124h1.314a.169.169,0,0,0,.168-.124l.427-1.224V165.5A2.577,2.577,0,0,1,118.013,165.837Z" transform="translate(-104.122 -146.912)" fill="#f9d0b4"/>
    <path id="Path_3876" data-name="Path 3876" d="M30.94,128.864h0a2.1,2.1,0,0,1-1.628-.775.248.248,0,0,0-.348-.034l-.034.034a2.06,2.06,0,0,1-1.617.775h-.067A.24.24,0,0,0,27,129.1v.954a2.13,2.13,0,0,0,1.886,2.133,2.094,2.094,0,0,0,2.291-1.886,1.154,1.154,0,0,0,.011-.191v-.988a.233.233,0,0,0-.247-.258Z" transform="translate(-24.404 -113.621)" fill="#f9d0b4"/>
    <path id="Path_3877" data-name="Path 3877" d="M202.141,164.791a2.4,2.4,0,0,1-.741-.191v.64l.326.943a.135.135,0,0,0,.135.09h1.011a.146.146,0,0,0,.135-.09l.326-.943v-.629A2.678,2.678,0,0,1,202.141,164.791Z" transform="translate(-179.224 -146.113)" fill="#f9d0b4"/>
    <path id="Path_3878" data-name="Path 3878" d="M88.044,182.9l-.337-5.962a1.052,1.052,0,0,0-.808-.977l-2.111-.528-1.269-.629-.427,1.224a.182.182,0,0,1-.168.124H81.61a.169.169,0,0,1-.168-.124l-.427-1.224-1.269.629-2.111.528a1.063,1.063,0,0,0-.808.977L76.49,182.9a.7.7,0,0,0,.662.741H87.325a.7.7,0,0,0,.7-.7C88.044,182.929,88.044,182.918,88.044,182.9Z" transform="translate(-68.338 -155.168)" fill="#e9e9ea"/>
    <path id="Path_3879" data-name="Path 3879" d="M182.044,176.453l-.2-3.548a2.142,2.142,0,0,0-1.617-1.954l-.685-.168-.977-.483-.326.943a.135.135,0,0,1-.135.09h-1.011a.146.146,0,0,1-.135-.09l-.326-.943-.977.483-.685.168a2.15,2.15,0,0,0-1.471,1.291,1.068,1.068,0,0,1,.326.707l.236,4.154h7.377a.616.616,0,0,0,.618-.618A.041.041,0,0,1,182.044,176.453Z" transform="translate(-154.456 -151.173)" fill="#b26e3b"/>
    <path id="Path_3880" data-name="Path 3880" d="M13.463,170.851l-.685-.168L11.8,170.2l-.326.943a.135.135,0,0,1-.135.09H10.33a.146.146,0,0,1-.135-.09L9.87,170.2l-.977.483-.685.168A2.142,2.142,0,0,0,6.591,172.8l-.2,3.548a.616.616,0,0,0,.584.651h7.41l.236-4.154a1.044,1.044,0,0,1,.326-.707A2.19,2.19,0,0,0,13.463,170.851Z" transform="translate(-6.107 -151.084)" fill="#fc7783"/>
    <path id="Path_3881" data-name="Path 3881" d="M220.739.18c0-.022-.011-.034-.011-.056s-.011-.034-.022-.045-.022-.034-.034-.045a.271.271,0,0,0-.393,0h0a.155.155,0,0,0-.034.045.085.085,0,0,0-.022.045.084.084,0,0,0-.011.056c0,.022-.011.034-.011.056a.1.1,0,0,0,.011.056c0,.022.011.034.011.056s.011.034.022.045.022.034.034.045a.293.293,0,0,0,.393,0,.156.156,0,0,0,.034-.045.085.085,0,0,0,.022-.045.1.1,0,0,0,.011-.056.1.1,0,0,1,.011-.056A.1.1,0,0,0,220.739.18Z" transform="translate(-195.913 0.05)" fill="#ffcd29"/>
    <path id="Path_3882" data-name="Path 3882" d="M52.672,15.647a.4.4,0,0,0-.045-.1c-.011-.011-.022-.034-.034-.045a.293.293,0,0,0-.393,0,.155.155,0,0,0-.034.045.085.085,0,0,0-.022.045.1.1,0,0,0-.011.056.191.191,0,0,0,0,.112c0,.022.011.034.011.056s.011.034.022.045.022.034.034.045a.271.271,0,0,0,.393,0h0a.155.155,0,0,0,.034-.045.085.085,0,0,0,.022-.045.084.084,0,0,0,.011-.056A.133.133,0,0,0,52.672,15.647Z" transform="translate(-46.709 -13.687)" fill="#55acd5"/>
    <path id="Path_3883" data-name="Path 3883" d="M196.092,5.617a1.053,1.053,0,0,1-.842-.842c0-.011-.011-.022-.022-.011a.011.011,0,0,0-.011.011,1.053,1.053,0,0,1-.842.842c-.011,0-.022.011-.011.022a.011.011,0,0,0,.011.011,1.053,1.053,0,0,1,.842.842c0,.011.011.022.022.011a.011.011,0,0,0,.011-.011,1.053,1.053,0,0,1,.842-.842c.011,0,.022-.011.011-.022A.011.011,0,0,0,196.092,5.617Z" transform="translate(-172.973 -4.219)" fill="#ea4647"/>
    <path id="Path_3884" data-name="Path 3884" d="M74.246,92.883h-.2v-.2a.281.281,0,1,0-.561,0v.2h-.2a.281.281,0,0,0,0,.561h.2v.2a.281.281,0,0,0,.561,0v-.2h.2a.281.281,0,0,0,0-.561Z" transform="translate(-65.24 -82.02)" fill="#6dcc6d"/>
    <path id="Path_3885" data-name="Path 3885" d="M84.6,0H76.945A2.152,2.152,0,0,0,74.8,2.145V5.412a2.144,2.144,0,0,0,2.145,2.145h1.976a.411.411,0,0,1,.337.18l1.112,1.7a.483.483,0,0,0,.662.135.387.387,0,0,0,.135-.135l1.112-1.7a.411.411,0,0,1,.337-.18h1.976a2.144,2.144,0,0,0,2.145-2.145V2.145A2.135,2.135,0,0,0,84.6,0Zm1.583,5.412A1.581,1.581,0,0,1,84.6,7H82.626a.95.95,0,0,0-.808.438L80.773,9.016,79.729,7.433A.977.977,0,0,0,78.921,7H76.945a1.581,1.581,0,0,1-1.583-1.583V2.145A1.581,1.581,0,0,1,76.945.561h7.646a1.581,1.581,0,0,1,1.583,1.583V5.412Z" transform="translate(-66.838 0.006)" fill="#231f20"/>
    <path id="Path_3886" data-name="Path 3886" d="M177.553,30.2h-5.592a1.75,1.75,0,0,0-.876.247.305.305,0,0,0-.135.236V32.21a1.555,1.555,0,0,1-.55,1.19.319.319,0,0,0-.1.213v.606a1.658,1.658,0,0,0,1.639,1.651h1.471a.19.19,0,0,1,.18.1l.82,1.235a.422.422,0,0,0,.707,0l.82-1.235a.247.247,0,0,1,.18-.1h1.448A1.644,1.644,0,0,0,179.2,34.22V31.851A1.668,1.668,0,0,0,177.553,30.2Zm1.078,4.031a1.1,1.1,0,0,1-1.078,1.089H176.1a.8.8,0,0,0-.651.348l-.7,1.055-.7-1.055a.771.771,0,0,0-.651-.348h-1.448a1.081,1.081,0,0,1-1.078-1.089v-.483a2.123,2.123,0,0,0,.64-1.527V30.862a1,1,0,0,1,.438-.1h5.592a1.081,1.081,0,0,1,1.078,1.089Z" transform="translate(-151.615 -26.804)" fill="#231f20"/>
    <path id="Path_3887" data-name="Path 3887" d="M15.28,33.511a1.59,1.59,0,0,1-.55-1.19V30.783a.252.252,0,0,0-.135-.236,1.59,1.59,0,0,0-.876-.247H8.139A1.641,1.641,0,0,0,6.5,31.939v2.392a1.658,1.658,0,0,0,1.639,1.651H9.588a.19.19,0,0,1,.18.1l.82,1.235a.422.422,0,0,0,.707,0l.82-1.235a.247.247,0,0,1,.18-.1h1.448a1.66,1.66,0,0,0,1.651-1.651v-.606A.389.389,0,0,0,15.28,33.511Zm-.472.808a1.1,1.1,0,0,1-1.089,1.089H12.282a.8.8,0,0,0-.651.348l-.7,1.055-.7-1.055a.771.771,0,0,0-.651-.348H8.139A1.081,1.081,0,0,1,7.061,34.32v-2.38A1.1,1.1,0,0,1,8.139,30.85h5.592a.965.965,0,0,1,.438.1V32.31a2.169,2.169,0,0,0,.64,1.527Z" transform="translate(-6.207 -26.892)" fill="#231f20"/>
    <path id="Path_3888" data-name="Path 3888" d="M104.2,17.9h0l-6.119.022a.281.281,0,0,0,0,.561h0l6.119-.022a.281.281,0,0,0,0-.561Z" transform="translate(-87.256 -15.885)" fill="#231f20"/>
    <path id="Path_3889" data-name="Path 3889" d="M104.3,31.1l-6.119.022a.281.281,0,0,0,0,.561h0l6.119-.022a.281.281,0,0,0,0-.561Z" transform="translate(-87.345 -27.602)" fill="#231f20"/>
    <path id="Path_3890" data-name="Path 3890" d="M104.3,44.3l-6.119.022a.281.281,0,1,0,0,.561h0l6.119-.022a.278.278,0,0,0,.281-.281h0A.293.293,0,0,0,104.3,44.3Z" transform="translate(-87.345 -39.32)" fill="#231f20"/>
    <path id="Path_3891" data-name="Path 3891" d="M65.581,200.3a.278.278,0,0,0-.281.281v3.155a.281.281,0,1,0,.561,0v-3.155A.278.278,0,0,0,65.581,200.3Z" transform="translate(-58.405 -177.805)" fill="#231f20"/>
    <path id="Path_3892" data-name="Path 3892" d="M21.381,200.3a.278.278,0,0,0-.281.281v3.155a.281.281,0,1,0,.561,0v-3.155A.278.278,0,0,0,21.381,200.3Z" transform="translate(-19.168 -177.805)" fill="#231f20"/>
    <path id="Path_3893" data-name="Path 3893" d="M37.069,160.567a.255.255,0,0,0-.281,0,1.942,1.942,0,0,1-.865.225,1.822,1.822,0,0,1-.808-.191.3.3,0,0,0-.382.124.226.226,0,0,0-.034.124v.775a.219.219,0,0,0,.011.09l.326.943a.411.411,0,0,0,.393.281H36.44a.411.411,0,0,0,.393-.281l.326-.943a.247.247,0,0,0,.011-.09v-.82A.178.178,0,0,0,37.069,160.567Zm-.415,1-.281.808h-.808l-.281-.808v-.314a2.373,2.373,0,0,0,1.37-.022Z" transform="translate(-31.241 -142.496)" fill="#231f20"/>
    <path id="Path_3894" data-name="Path 3894" d="M228.22,130.5a1.027,1.027,0,0,0-.191.011.272.272,0,0,0-.236.292v1.718a.283.283,0,0,0,.236.3,1.089,1.089,0,0,0,.191.011,1.17,1.17,0,1,0,0-2.335Zm.135,1.763v-1.19a.589.589,0,0,1,.528.662.6.6,0,0,1-.528.528Z" transform="translate(-202.653 -115.842)" fill="#231f20"/>
    <path id="Path_3895" data-name="Path 3895" d="M179.062,130.838v-.124a.283.283,0,0,0-.236-.3,1.089,1.089,0,0,0-.191-.011,1.17,1.17,0,1,0,0,2.335,1.027,1.027,0,0,0,.191-.011.276.276,0,0,0,.236-.3v-1.583Zm-.561,1.336a.6.6,0,0,1,0-1.19Z" transform="translate(-157.918 -115.753)" fill="#231f20"/>
    <path id="Path_3896" data-name="Path 3896" d="M192.263,119.489c-.135-.079-.483-.337-.483-.64v-.011a.72.72,0,0,0-.258-.561.745.745,0,0,0-.629-.146,4.981,4.981,0,0,1-2.077,0,.71.71,0,0,0-.629.146.693.693,0,0,0-.258.573c0,.3-.348.561-.483.64a.279.279,0,0,0-.146.247v1.617a2.514,2.514,0,0,0,2.313,2.448,1.818,1.818,0,0,0,.247.011,2.631,2.631,0,0,0,1.785-.685,2.307,2.307,0,0,0,.775-1.729v-1.673A.313.313,0,0,0,192.263,119.489Zm-.415,1.909a1.78,1.78,0,0,1-.6,1.314,2.094,2.094,0,0,1-1.594.528,1.943,1.943,0,0,1-1.8-1.886v-1.471a1.363,1.363,0,0,0,.629-1.033v-.022a.156.156,0,0,1,.056-.112.179.179,0,0,1,.146-.034,5.461,5.461,0,0,0,2.335,0,.162.162,0,0,1,.146.034.138.138,0,0,1,.056.112v.022a1.363,1.363,0,0,0,.629,1.033Z" transform="translate(-166.707 -104.842)" fill="#231f20"/>
    <path id="Path_3897" data-name="Path 3897" d="M229.581,200.3a.278.278,0,0,0-.281.281v3.155a.281.281,0,1,0,.561,0v-3.155A.278.278,0,0,0,229.581,200.3Z" transform="translate(-203.991 -177.805)" fill="#231f20"/>
    <path id="Path_3898" data-name="Path 3898" d="M185.481,200.3a.278.278,0,0,0-.281.281v3.155a.281.281,0,1,0,.561,0v-3.155A.285.285,0,0,0,185.481,200.3Z" transform="translate(-164.843 -177.805)" fill="#231f20"/>
    <path id="Path_3899" data-name="Path 3899" d="M86.1,180.7h0l-.337-5.962a1.352,1.352,0,0,0-1.022-1.235l-2.077-.528-1.246-.606a.279.279,0,0,0-.371.124c0,.011-.011.022-.011.034l-.4,1.156H79.464l-.4-1.156a.279.279,0,0,0-.359-.168c-.011,0-.022.011-.034.011l-1.246.606-2.077.528a1.352,1.352,0,0,0-1.022,1.235l-.337,5.962a.979.979,0,0,0,.921,1.033H85.1a.978.978,0,0,0,.977-.977.062.062,0,0,0,.022-.056Zm-.674.337a.445.445,0,0,1-.3.135H74.973a.414.414,0,0,1-.415-.415v-.022l.337-5.962a.779.779,0,0,1,.6-.719l2.111-.528c.022,0,.034-.011.056-.022l.988-.483.326.932a.463.463,0,0,0,.438.3h1.314a.475.475,0,0,0,.438-.3l.326-.932.988.483c.022.011.034.011.056.022l2.111.528a.79.79,0,0,1,.6.719l.337,5.962a.7.7,0,0,1-.146.3Z" transform="translate(-66.113 -152.982)" fill="#231f20"/>
    <path id="Path_3900" data-name="Path 3900" d="M149.754,123.4a1.521,1.521,0,0,0-.225.022.272.272,0,0,0-.236.292c0,.056.011.112.011.168v1.875a.849.849,0,0,1-.011.168.272.272,0,0,0,.236.292,1.41,1.41,0,0,0,.449-2.785.548.548,0,0,0-.225-.034Zm.1,2.257v-1.7a.854.854,0,0,1,0,1.7Z" transform="translate(-132.967 -109.539)" fill="#231f20"/>
    <path id="Path_3901" data-name="Path 3901" d="M91.3,123.819a.85.85,0,0,1,.011-.168.272.272,0,0,0-.236-.292,1.41,1.41,0,0,0-.449,2.785,1.134,1.134,0,0,0,.449,0,.272.272,0,0,0,.236-.292c0-.056-.011-.112-.011-.168Zm-.561,1.785a.854.854,0,0,1,0-1.7Z" transform="translate(-79.835 -109.486)" fill="#231f20"/>
    <path id="Path_3902" data-name="Path 3902" d="M106.807,113.079a.422.422,0,0,0-.415-.415,2.568,2.568,0,0,1-1.763-.629.437.437,0,0,0-.606,0l-.034.034a2.638,2.638,0,0,1-2.672.865.433.433,0,0,0-.505.326.247.247,0,0,0-.011.09v2.178a3,3,0,1,0,6,0v-2.414Zm-.561,2.47a2.436,2.436,0,1,1-4.873,0h0v-2.021a3.212,3.212,0,0,0,2.964-.988,3.109,3.109,0,0,0,1.9.685v2.324Z" transform="translate(-89.919 -99.341)" fill="#231f20"/>
    <path id="Path_3903" data-name="Path 3903" d="M99.107,89.939a1.737,1.737,0,0,0-.707.146,1.869,1.869,0,0,0-1.415-.685h-.8A3.093,3.093,0,0,0,93.1,92.488v1.258a.278.278,0,0,0,.281.281.339.339,0,0,0,.18-.056.827.827,0,0,1,.662-.18.288.288,0,0,0,.326-.236v-.011a3.238,3.238,0,0,0,2.975-.988,3.11,3.11,0,0,0,1.9.685v.269a.278.278,0,0,0,.281.281h.045a.547.547,0,0,1,.135-.011.881.881,0,0,1,.6.236A.271.271,0,0,0,100.87,94a.319.319,0,0,0,.079-.191V91.769A1.847,1.847,0,0,0,99.107,89.939Zm1.269,3.368a1.52,1.52,0,0,0-.4-.09v-.124a.422.422,0,0,0-.415-.415,2.568,2.568,0,0,1-1.763-.629.437.437,0,0,0-.606,0l-.034.034a2.638,2.638,0,0,1-2.672.865.421.421,0,0,0-.359.09.367.367,0,0,0-.124.168,1.738,1.738,0,0,0-.348.067v-.8a2.537,2.537,0,0,1,2.526-2.526h.8a1.263,1.263,0,0,1,1.089.618.277.277,0,0,0,.382.1h0a1.273,1.273,0,0,1,1.74.427,1.251,1.251,0,0,1,.18.662Z" transform="translate(-83.083 -79.357)" fill="#231f20"/>
    <path id="Path_3904" data-name="Path 3904" d="M126,197.757a.3.3,0,0,0-.258-.079c-.022,0-.034.011-.056.011s-.034.011-.045.022-.034.022-.045.034a.155.155,0,0,0-.034.045.085.085,0,0,0-.022.045.1.1,0,0,0-.011.056.191.191,0,0,0,0,.112c0,.022.011.034.011.056s.011.034.022.045.022.034.034.045a.155.155,0,0,0,.045.034.085.085,0,0,0,.045.022.1.1,0,0,0,.056.011c.022,0,.034.011.056.011a.278.278,0,0,0,.281-.281.293.293,0,0,0-.079-.191Z" transform="translate(-111.868 -175.475)" fill="#231f20"/>
    <path id="Path_3905" data-name="Path 3905" d="M126,210.657a.3.3,0,0,0-.258-.079c-.022,0-.034.011-.056.011s-.034.011-.045.022-.034.022-.045.034a.155.155,0,0,0-.034.045.085.085,0,0,0-.022.045.1.1,0,0,0-.011.056.191.191,0,0,0,0,.112c0,.022.011.034.011.056s.011.034.022.045.022.034.034.045a.155.155,0,0,0,.045.034.085.085,0,0,0,.045.022.1.1,0,0,0,.056.011.1.1,0,0,1,.056.011.323.323,0,0,0,.2-.079A.293.293,0,0,0,126,210.657Z" transform="translate(-111.868 -186.926)" fill="#231f20"/>
    <path id="Path_3906" data-name="Path 3906" d="M126,223.557a.3.3,0,0,0-.258-.079c-.022,0-.034.011-.056.011s-.034.011-.045.022-.034.022-.045.034a.155.155,0,0,0-.034.045.085.085,0,0,0-.022.045.1.1,0,0,0-.011.056.191.191,0,0,0,0,.112c0,.022.011.034.011.056s.011.034.022.045.022.034.034.045a.155.155,0,0,0,.045.034.085.085,0,0,0,.045.022.1.1,0,0,0,.056.011.1.1,0,0,1,.056.011.323.323,0,0,0,.2-.079A.292.292,0,0,0,126,223.557Z" transform="translate(-111.868 -198.378)" fill="#231f20"/>
    <path id="Path_3907" data-name="Path 3907" d="M126,236.457a.3.3,0,0,0-.258-.079c-.022,0-.034.011-.056.011s-.034.011-.045.022-.034.022-.045.034a.154.154,0,0,0-.034.045.085.085,0,0,0-.022.045.1.1,0,0,0-.011.056.191.191,0,0,0,0,.112c0,.022.011.034.011.056s.011.034.022.045.022.034.034.045a.155.155,0,0,0,.045.034.085.085,0,0,0,.045.022.1.1,0,0,0,.056.011h.056a.278.278,0,0,0,.281-.281.318.318,0,0,0-.079-.18Z" transform="translate(-111.868 -209.83)" fill="#231f20"/>
    <path id="Path_3908" data-name="Path 3908" d="M154.081,214.6a.278.278,0,0,0-.281.281v4.087a.281.281,0,1,0,.561,0v-4.087A.278.278,0,0,0,154.081,214.6Z" transform="translate(-136.968 -190.499)" fill="#231f20"/>
    <path id="Path_3909" data-name="Path 3909" d="M96.781,214.6a.278.278,0,0,0-.281.281v4.087a.281.281,0,1,0,.561,0v-4.087A.278.278,0,0,0,96.781,214.6Z" transform="translate(-86.102 -190.499)" fill="#231f20"/>
    <path id="Path_3910" data-name="Path 3910" d="M117.142,163.067a.255.255,0,0,0-.281,0,2.455,2.455,0,0,1-1.156.292,2.429,2.429,0,0,1-1.089-.258.3.3,0,0,0-.382.124.226.226,0,0,0-.034.124v1a.219.219,0,0,0,.011.09l.427,1.224a.463.463,0,0,0,.438.3h1.314a.475.475,0,0,0,.438-.3l.427-1.224a.247.247,0,0,0,.011-.09V163.3A.226.226,0,0,0,117.142,163.067Zm-.427,1.235-.393,1.112h-1.168l-.393-1.112v-.539a3.106,3.106,0,0,0,1.942-.022Z" transform="translate(-101.814 -144.715)" fill="#231f20"/>
    <path id="Path_3911" data-name="Path 3911" d="M29.1,126.5a.535.535,0,0,0-.382-.157h0v0a1.8,1.8,0,0,1-1.4-.674.531.531,0,0,0-.741-.079.262.262,0,0,0-.079.079,1.81,1.81,0,0,1-1.46.674.483.483,0,0,0-.382.146.535.535,0,0,0-.157.382v.943a2.431,2.431,0,0,0,2.145,2.414,1.581,1.581,0,0,0,.225.011,2.382,2.382,0,0,0,2.38-2.38v-.988A.446.446,0,0,0,29.1,126.5Zm-.4,1.347a1.811,1.811,0,0,1-1.987,1.8,1.868,1.868,0,0,1-1.639-1.853v-.9a2.363,2.363,0,0,0,1.841-.842,2.321,2.321,0,0,0,1.785.842Z" transform="translate(-22.186 -111.38)" fill="#231f20"/>
    <path id="Path_3912" data-name="Path 3912" d="M19.19,102.3a3.287,3.287,0,0,0-3.29,3.29v2.077a3.208,3.208,0,0,0,.3,1.37,1.079,1.079,0,0,0,.966.618h1.156a.278.278,0,0,0,.281-.281v-.225a.269.269,0,0,0-.157-.247,1.89,1.89,0,0,1-1.011-1.673v-.9a2.363,2.363,0,0,0,1.841-.842,2.321,2.321,0,0,0,1.785.842v.943a1.821,1.821,0,0,1-.954,1.594.279.279,0,0,0-.146.247v.258a.278.278,0,0,0,.281.281h.966a1.06,1.06,0,0,0,.966-.618,3.208,3.208,0,0,0,.3-1.37V105.59A3.3,3.3,0,0,0,19.19,102.3Zm2.717,5.367a2.823,2.823,0,0,1-.247,1.134.5.5,0,0,1-.46.292h-.427a2.347,2.347,0,0,0,.842-1.808V106.3a.528.528,0,0,0-.157-.371.535.535,0,0,0-.382-.157,1.8,1.8,0,0,1-1.4-.674.531.531,0,0,0-.741-.079.262.262,0,0,0-.079.079,1.81,1.81,0,0,1-1.46.674.483.483,0,0,0-.382.146.535.535,0,0,0-.157.382v.943a2.474,2.474,0,0,0,.853,1.864h-.561a.52.52,0,0,1-.46-.292,2.647,2.647,0,0,1-.247-1.134V105.6a2.728,2.728,0,1,1,5.457,0v2.066Z" transform="translate(-14.551 -90.808)" fill="#231f20"/>
    <path id="Path_3913" data-name="Path 3913" d="M43.781,177a.278.278,0,0,0-.281.281v1.258a.281.281,0,0,0,.561,0v-1.258A.278.278,0,0,0,43.781,177Z" transform="translate(-39.053 -157.121)" fill="#231f20"/>
    <path id="Path_3914" data-name="Path 3914" d="M214.223,198h-.842a.281.281,0,0,0,0,.561h.842a.278.278,0,0,0,.281-.281A.285.285,0,0,0,214.223,198Z" transform="translate(-189.61 -175.763)" fill="#231f20"/>
    <path id="Path_3915" data-name="Path 3915" d="M184.7,99a3.112,3.112,0,0,0-3.2,3.009v.932a.278.278,0,0,0,.281.281.267.267,0,0,0,.135-.034.81.81,0,0,1,.359-.09.311.311,0,0,1,.1.011.28.28,0,0,0,.3-.168,1.415,1.415,0,0,0,.651-1.055v-.022a.156.156,0,0,1,.056-.112.179.179,0,0,1,.146-.034,5.46,5.46,0,0,0,2.335,0,.162.162,0,0,1,.146.034.138.138,0,0,1,.056.112v.022a1.415,1.415,0,0,0,.651,1.055.278.278,0,0,0,.3.168c.034,0,.067-.011.1-.011a.81.81,0,0,1,.359.09.277.277,0,0,0,.382-.1.3.3,0,0,0,.034-.135v-.932A3.114,3.114,0,0,0,184.7,99Zm2.639,3.548a1.237,1.237,0,0,0-.2-.022l-.011-.011c-.135-.079-.483-.337-.483-.651a.718.718,0,0,0-.887-.707,4.981,4.981,0,0,1-2.077,0,.71.71,0,0,0-.629.146.693.693,0,0,0-.258.573c0,.3-.348.561-.483.64l-.011.011a1.239,1.239,0,0,0-.2.022v-.539a2.646,2.646,0,0,1,5.277,0Z" transform="translate(-161.558 -87.879)" fill="#231f20"/>
    <path id="Path_3916" data-name="Path 3916" d="M201.269,162.115a.286.286,0,0,0-.269-.022,2.118,2.118,0,0,1-1.055.168,2.142,2.142,0,0,1-.651-.168.275.275,0,0,0-.371.146.4.4,0,0,0-.022.112v.64a.219.219,0,0,0,.011.09l.326.943a.411.411,0,0,0,.393.281h1.01a.411.411,0,0,0,.393-.281l.326-.943a.247.247,0,0,0,.011-.09v-.629A.221.221,0,0,0,201.269,162.115Zm-.438.82-.281.808h-.808l-.281-.808v-.191a2.988,2.988,0,0,0,.438.079,2.605,2.605,0,0,0,.932-.079Z" transform="translate(-177.004 -143.864)" fill="#231f20"/>
    <path id="Path_3917" data-name="Path 3917" d="M201.013,146.618l-.438-.18a.589.589,0,0,0-.629.112.054.054,0,0,1-.079,0,.642.642,0,0,0-.629-.112l-.438.18a.277.277,0,0,0,.2.516h0l.438-.18a.049.049,0,0,1,.056.011.615.615,0,0,0,.808,0,.049.049,0,0,1,.056-.011l.438.18a.273.273,0,0,0,.359-.157.26.26,0,0,0-.146-.359Z" transform="translate(-176.76 -129.95)" fill="#231f20"/>
    <path id="Path_3918" data-name="Path 3918" d="M180.036,174.167h0l-.2-3.548a2.416,2.416,0,0,0-1.83-2.212l-.662-.168-.954-.472a.279.279,0,0,0-.371.124c0,.011-.011.022-.011.034l-.292.853H174.9l-.292-.853a.279.279,0,0,0-.359-.168c-.011,0-.022.011-.034.011l-.954.472-.662.168a2.434,2.434,0,0,0-1.662,1.46.28.28,0,0,0,.067.3.768.768,0,0,1,.236.528l.236,4.154a.291.291,0,0,0,.281.269h7.377a.9.9,0,0,0,.9-.9v-.056Zm-.651.281a.33.33,0,0,1-.247.1H172.03l-.213-3.9a1.285,1.285,0,0,0-.281-.741,1.875,1.875,0,0,1,1.213-.966l.685-.168c.022,0,.034-.011.056-.022l.7-.337.225.651a.411.411,0,0,0,.393.281h1.011a.411.411,0,0,0,.393-.281l.225-.651.7.337c.022.011.034.011.056.022l.685.168a1.866,1.866,0,0,1,1.4,1.7l.2,3.548a.308.308,0,0,1-.09.258Z" transform="translate(-152.167 -148.899)" fill="#231f20"/>
    <path id="Path_3919" data-name="Path 3919" d="M12.976,169.767a2.434,2.434,0,0,0-1.662-1.46l-.662-.168-.954-.472a.279.279,0,0,0-.371.124c0,.011-.011.022-.011.034l-.292.853H8.215l-.292-.853a.279.279,0,0,0-.359-.168c-.011,0-.022.011-.034.011l-.954.472-.662.168a2.415,2.415,0,0,0-1.83,2.212l-.191,3.559a.893.893,0,0,0,.842.943h7.422a.283.283,0,0,0,.281-.269l.236-4.154h0a.846.846,0,0,1,.236-.528A.258.258,0,0,0,12.976,169.767Zm-.865.8-.213,3.9H4.791a.338.338,0,0,1-.337-.337V174.1l.2-3.548a1.844,1.844,0,0,1,1.4-1.7l.685-.168c.022,0,.034-.011.056-.022l.7-.337.225.651a.411.411,0,0,0,.393.281H9.125a.411.411,0,0,0,.393-.281l.225-.651.7.337c.022.011.034.011.056.022l.685.168a1.875,1.875,0,0,1,1.213.966,1.286,1.286,0,0,0-.281.741Z" transform="translate(-3.891 -148.81)" fill="#231f20"/>
  </g>
</svg>
