<svg xmlns="http://www.w3.org/2000/svg" width="27.867" height="27.759" viewBox="0 0 27.867 27.759">
  <g id="web-crawler" transform="translate(0)">
    <path id="Path_3985" data-name="Path 3985" d="M27.867,3.449A2.449,2.449,0,0,0,25.418,1H2.449A2.449,2.449,0,0,0,0,3.449v4.9l.544.544H27.323l.544-.544Z" transform="translate(0 -1)" fill="#0052c2"/>
    <path id="Path_3986" data-name="Path 3986" d="M269.934,3.449v4.9l-.544.544H256V1h11.484A2.449,2.449,0,0,1,269.934,3.449Z" transform="translate(-242.066 -1)" fill="#003481"/>
    <path id="Path_3987" data-name="Path 3987" d="M336.715,61h-4.9a.816.816,0,1,0,0,1.633h4.9a.816.816,0,1,0,0-1.633Z" transform="translate(-312.984 -57.734)" fill="#0052c2"/>
    <ellipse id="Ellipse_242" data-name="Ellipse 242" cx="0.771" cy="1.028" rx="0.771" ry="1.028" transform="translate(9.821 3.084)" fill="#f03800"/>
    <ellipse id="Ellipse_243" data-name="Ellipse 243" cx="0.771" cy="1.028" rx="0.771" ry="1.028" transform="translate(6.737 3.084)" fill="#fdbf00"/>
    <ellipse id="Ellipse_244" data-name="Ellipse 244" cx="1.028" cy="1.028" rx="1.028" ry="1.028" transform="translate(3.139 3.084)" fill="#37d742"/>
    <path id="Path_3988" data-name="Path 3988" d="M0,136v17.961a2.452,2.452,0,0,0,2.449,2.449H25.418a2.452,2.452,0,0,0,2.449-2.449V136Z" transform="translate(0 -128.652)" fill="#e0f4ff"/>
    <path id="Path_3989" data-name="Path 3989" d="M269.934,136v17.961a2.452,2.452,0,0,1-2.449,2.449H256V136Z" transform="translate(-242.066 -128.652)" fill="#b8e0f5"/>
    <g id="Group_24681" data-name="Group 24681" transform="translate(5.225 9.797)">
      <path id="Path_3990" data-name="Path 3990" d="M147.891,368.021a.817.817,0,0,1-1.611.269l-.272-1.633a.817.817,0,0,1,.274-.754c.025-.021,1.9-1.632,1.929-1.652a4.47,4.47,0,0,0,.556,1.673l-1.073.919Z" transform="translate(-143.276 -354.276)" fill="#f03800"/>
      <path id="Path_3991" data-name="Path 3991" d="M100.913,332.633H98.432l-.873,1.964a.817.817,0,0,1-1.492-.663l1.089-2.449A.817.817,0,0,1,97.9,331h3.157A4.644,4.644,0,0,0,100.913,332.633Z" transform="translate(-95.996 -322.836)" fill="#f03800"/>
      <path id="Path_3992" data-name="Path 3992" d="M153.552,186.409a3.781,3.781,0,0,0-1.408.979l-2.173-1.66a.816.816,0,0,1-.305-.489l-.653-3.266a.816.816,0,1,1,1.6-.32l.593,2.964Z" transform="translate(-146.112 -180.997)" fill="#f03800"/>
      <path id="Path_3993" data-name="Path 3993" d="M106.612,215.923a4.354,4.354,0,0,0-.791,1.491l-3-.721a.816.816,0,0,1-.593-.564l-1.2-4.082a.816.816,0,1,1,1.566-.459l1.065,3.628Z" transform="translate(-100.724 -209.367)" fill="#f03800"/>
    </g>
    <path id="Path_3994" data-name="Path 3994" d="M317.859,366.657l-.272,1.633a.817.817,0,0,1-1.611-.269l.2-1.178-1.073-.919a4.469,4.469,0,0,0,.556-1.673c.026.021,1.9,1.631,1.929,1.652A.818.818,0,0,1,317.859,366.657Z" transform="translate(-297.949 -344.479)" fill="#c61a00"/>
    <path id="Path_3995" data-name="Path 3995" d="M327.567,335.012a.817.817,0,0,1-1.078-.415l-.873-1.964h-2.481A4.644,4.644,0,0,0,322.99,331h3.157a.816.816,0,0,1,.746.485l1.089,2.449A.817.817,0,0,1,327.567,335.012Z" transform="translate(-305.41 -313.039)" fill="#c61a00"/>
    <path id="Path_3996" data-name="Path 3996" d="M283.849,181.971l-.653,3.266a.816.816,0,0,1-.305.489l-2.173,1.66a3.78,3.78,0,0,0-1.408-.979l2.345-1.791.593-2.964a.816.816,0,0,1,1.6.32Z" transform="translate(-264.107 -171.197)" fill="#c61a00"/>
    <path id="Path_3997" data-name="Path 3997" d="M313.412,212.046l-1.2,4.082a.816.816,0,0,1-.593.564c-1.626.39-2.51.6-3,.721a4.347,4.347,0,0,0-.791-1.49l2.951-.709,1.065-3.628a.816.816,0,0,1,1.566.459Z" transform="translate(-291.075 -199.57)" fill="#c61a00"/>
    <path id="Path_3998" data-name="Path 3998" d="M187.09,214.849a2.449,2.449,0,1,0-4.016,0A4.584,4.584,0,0,0,181,218.756a4.1,4.1,0,1,0,8.164,0A4.584,4.584,0,0,0,187.09,214.849Z" transform="translate(-171.148 -199.57)" fill="#ff641a"/>
    <path id="Path_3999" data-name="Path 3999" d="M258.009,214.848A2.448,2.448,0,0,0,256,211v12.246a4.306,4.306,0,0,0,4.082-4.49A4.585,4.585,0,0,0,258.009,214.848Z" transform="translate(-242.066 -199.57)" fill="#f03800"/>
  </g>
</svg>
