<svg xmlns="http://www.w3.org/2000/svg" width="31.13" height="30.619" viewBox="0 0 31.13 30.619">
  <g id="surface1" transform="translate(0)">
    <path id="Path_3920" data-name="Path 3920" d="M73.707,328.178l-2.414-.495-1.4,1.446-4.761-3.757,3.175-2.167,3.376-3.694a1.27,1.27,0,0,1,2.013.18l4,4.587a1.474,1.474,0,0,1-.357,2.236l-2.356,1.4A2.192,2.192,0,0,1,73.707,328.178Zm0,0" transform="translate(-61.177 -299.696)" fill="#ffe7cf"/>
    <path id="Path_3921" data-name="Path 3921" d="M113.2,387.01l-.976-1.119-4.07,2.425a2.192,2.192,0,0,1-1.28.261l-2.114-.228-1.826,1.568,2.463,1.944,1.4-1.447,2.414.495a2.193,2.193,0,0,0,1.279-.261l2.356-1.4A1.474,1.474,0,0,0,113.2,387.01Zm0,0" transform="translate(-96.676 -362.428)" fill="#efd5bd"/>
    <path id="Path_3922" data-name="Path 3922" d="M154.886,292.465c-.471-.731-1.045-.361-1.516-1.092s.1-1.1-.368-1.832-1.045-.361-1.516-1.092.1-1.1-.369-1.832c-.288-.447-.81-1.369-1.128-1.5l-2.543,1.257,4.426,6.981a1.443,1.443,0,0,0,2,.431l.847-.546a.563.563,0,0,0,.177-.772Zm0,0" transform="translate(-138.481 -267.785)" fill="#344a5d"/>
    <path id="Path_3923" data-name="Path 3923" d="M82.181,272.926l-2,1.233a.807.807,0,0,1-1.11-.263l-1.13-1.831a.807.807,0,0,1,.263-1.11l2-1.233a.5.5,0,0,1,.687.163l1.452,2.354A.5.5,0,0,1,82.181,272.926Zm0,0" transform="translate(-73.092 -253.253)" fill="#344a5d"/>
    <path id="Path_3924" data-name="Path 3924" d="M98.683,58.244l-4.056,2.5a1.135,1.135,0,0,0-.37,1.563l2,3.241a1.136,1.136,0,0,0,1.563.37l4.056-2.5L114.7,60.626l-7.771-12.594Zm0,0" transform="translate(-88.367 -45.111)" fill="#fed066"/>
    <path id="Path_3925" data-name="Path 3925" d="M128.331,206.367l-12.762,2.9-5.022,3.1,1.169,1.894a1.135,1.135,0,0,0,1.563.37l4.056-2.5,12.828-2.792Zm0,0" transform="translate(-103.826 -193.82)" fill="#f5b556"/>
    <path id="Path_3926" data-name="Path 3926" d="M101.873,221.17l-4.056,2.5a1.135,1.135,0,0,1-1.563-.37l-2-3.242a1.135,1.135,0,0,1,.37-1.563l4.056-2.5Zm0,0" transform="translate(-88.365 -202.863)" fill="#fd715c"/>
    <path id="Path_3927" data-name="Path 3927" d="M115.569,254.059l-5.022,3.1,1.169,1.894a1.135,1.135,0,0,0,1.563.37l2.028-1.251,2.028-1.251Zm0,0" transform="translate(-103.826 -238.612)" fill="#d83e3a"/>
    <path id="Path_3928" data-name="Path 3928" d="M293.828,43.288l-.554.342a.611.611,0,0,1-.84-.2l-8.354-13.539a.61.61,0,0,1,.2-.84l.554-.342a.61.61,0,0,1,.84.2l8.354,13.539A.611.611,0,0,1,293.828,43.288Zm0,0" transform="translate(-266.723 -26.879)" fill="#fd715c"/>
    <path id="Path_3929" data-name="Path 3929" d="M403.248,221.662l-1.374-2.228-1.593.983,1.374,2.227a.611.611,0,0,0,.84.2l.554-.342A.611.611,0,0,0,403.248,221.662Zm0,0" transform="translate(-375.944 -206.092)" fill="#d83e3a"/>
    <path id="Path_3930" data-name="Path 3930" d="M246.754,397.158a1.049,1.049,0,0,0,1.442.348l1.528-.934a1.048,1.048,0,0,0-1.094-1.789l-1.529.934A1.049,1.049,0,0,0,246.754,397.158Zm0,0" transform="translate(-231.607 -370.635)" fill="#ffe7cf"/>
    <path id="Path_3931" data-name="Path 3931" d="M250.228,396.28a1.042,1.042,0,0,0-.511-.428,1.048,1.048,0,0,1-.492,1.035l-1.529.934a1.046,1.046,0,0,1-.931.08,1.047,1.047,0,0,0,1.585.754l1.528-.934A1.048,1.048,0,0,0,250.228,396.28Zm0,0" transform="translate(-231.763 -371.784)" fill="#efd5bd"/>
    <path id="Path_3932" data-name="Path 3932" d="M235.95,363.11a1.064,1.064,0,0,0,1.463.353l1.5-.918a1.064,1.064,0,1,0-1.11-1.816l-1.5.918A1.064,1.064,0,0,0,235.95,363.11Zm0,0" transform="translate(-221.458 -338.65)" fill="#ffe7cf"/>
    <path id="Path_3933" data-name="Path 3933" d="M239.41,362.353a1.059,1.059,0,0,0-.5-.427,1.063,1.063,0,0,1-.5,1.042l-1.5.918a1.062,1.062,0,0,1-.963.074,1.063,1.063,0,0,0,1.61.774l1.5-.918A1.065,1.065,0,0,0,239.41,362.353Zm0,0" transform="translate(-221.6 -339.921)" fill="#efd5bd"/>
    <path id="Path_3934" data-name="Path 3934" d="M217.544,333.43a1.064,1.064,0,0,0,1.463.353l1.5-.918a1.064,1.064,0,0,0-1.11-1.816l-1.5.918A1.064,1.064,0,0,0,217.544,333.43Zm0,0" transform="translate(-204.171 -310.775)" fill="#ffe7cf"/>
    <path id="Path_3935" data-name="Path 3935" d="M220.982,332.751a1.058,1.058,0,0,0-.488-.423,1.064,1.064,0,0,1-.5,1.027l-1.5.918a1.062,1.062,0,0,1-.975.069,1.062,1.062,0,0,0,1.612.789l1.5-.918A1.064,1.064,0,0,0,220.982,332.751Zm0,0" transform="translate(-204.291 -312.122)" fill="#efd5bd"/>
    <path id="Path_3936" data-name="Path 3936" d="M200.194,302.992a1.064,1.064,0,0,0,1.463.353l1.5-.918a1.064,1.064,0,1,0-1.11-1.816l-1.5.918A1.064,1.064,0,0,0,200.194,302.992Zm0,0" transform="translate(-187.876 -282.187)" fill="#ffe7cf"/>
    <path id="Path_3937" data-name="Path 3937" d="M203.891,301.707a1.059,1.059,0,0,0-.6-.461,1.064,1.064,0,0,1-.485,1.13l-1.5.918a1.06,1.06,0,0,1-.867.108,1.061,1.061,0,0,0,1.595.686l1.5-.918A1.064,1.064,0,0,0,203.891,301.707Zm0,0" transform="translate(-188.254 -282.93)" fill="#efd5bd"/>
    <path id="Path_3938" data-name="Path 3938" d="M124.791,300.93l-.278.17a.917.917,0,0,1-1.265-.287l-.461-.754a.791.791,0,0,0-1.1-.244c-.379,2.784-4.336,2.532-4.336,2.532l2.452-3.693a1.972,1.972,0,0,1,.668-.688l1.384-.858a1.409,1.409,0,0,1,1.95.435l1.3,2.128A.919.919,0,0,1,124.791,300.93Zm0,0" transform="translate(-110.22 -278.838)" fill="#ffe7cf"/>
    <path id="Path_3939" data-name="Path 3939" d="M166.294,328.011l-.011-.018a.945.945,0,0,1-.31.308l-.279.17a.917.917,0,0,1-1.265-.287l-.461-.754a.791.791,0,0,0-1.1-.245,5.508,5.508,0,0,1-1.67,3.053,2.6,2.6,0,0,0,1.67-2.085.791.791,0,0,1,1.1.244l.461.754a.918.918,0,0,0,1.265.287l.279-.17A.918.918,0,0,0,166.294,328.011Zm0,0" transform="translate(-151.402 -307.177)" fill="#efd5bd"/>
    <path id="Path_3940" data-name="Path 3940" d="M84.454,396.966l-3.9-4.634,1.284-1.081a.1.1,0,0,1,.135.012l3.776,4.488a.1.1,0,0,1-.012.135Zm0,0" transform="translate(-75.657 -367.442)" fill="#cdd6df"/>
    <path id="Path_3941" data-name="Path 3941" d="M114,428.719l-2.009-2.387-1.358,1.142,2.071,2.461,1.284-1.081A.1.1,0,0,0,114,428.719Zm0,0" transform="translate(-103.911 -400.411)" fill="#96a4aa"/>
    <path id="Path_3942" data-name="Path 3942" d="M402.142,89.988a.463.463,0,0,1-.243-.857l2.509-1.543a.463.463,0,0,1,.485.788l-2.508,1.543A.459.459,0,0,1,402.142,89.988Zm0,0" transform="translate(-377.257 -82.197)" fill="#dbd9d1"/>
    <path id="Path_3943" data-name="Path 3943" d="M440.429,170.445l-.045,0-3.678-.357a.463.463,0,1,1,.09-.921l3.678.357a.463.463,0,0,1-.044.923Zm0,0" transform="translate(-409.762 -158.876)" fill="#dbd9d1"/>
    <path id="Path_3944" data-name="Path 3944" d="M367.532,4.37a.463.463,0,0,1-.431-.631L368.441.3a.463.463,0,0,1,.863.336l-1.34,3.444A.463.463,0,0,1,367.532,4.37Zm0,0" transform="translate(-344.752 -0.001)" fill="#dbd9d1"/>
    <path id="Path_3945" data-name="Path 3945" d="M9.076,407.952l-4.215-4.944a.1.1,0,0,0-.134-.018L.238,406.533a.625.625,0,0,0-.238.49v1.442a.624.624,0,0,0,.625.624H7.968a.625.625,0,0,0,.487-.233l.617-.768A.1.1,0,0,0,9.076,407.952Zm0,0" transform="translate(0 -378.471)" fill="#3c5666"/>
    <path id="Path_3946" data-name="Path 3946" d="M72.949,448.661l-2-2.345L68.008,449.8h3.833a.625.625,0,0,0,.487-.233l.617-.768A.1.1,0,0,0,72.949,448.661Zm0,0" transform="translate(-63.873 -419.18)" fill="#194451"/>
  </g>
</svg>
