<svg xmlns="http://www.w3.org/2000/svg" width="31.13" height="26.085" viewBox="0 0 31.13 26.085">
  <g id="blog" transform="translate(0 0)">
    <path id="Path_3971" data-name="Path 3971" d="M28.182,41.988a160.31,160.31,0,0,0-25.233,0A2.619,2.619,0,0,0,.554,44.322a94.449,94.449,0,0,0,0,20.424,2.619,2.619,0,0,0,2.395,2.333,160.307,160.307,0,0,0,25.233,0,2.619,2.619,0,0,0,2.395-2.333,94.448,94.448,0,0,0,0-20.424A2.619,2.619,0,0,0,28.182,41.988Z" transform="translate(-0.001 -41.491)" fill="#e4f6ff"/>
    <path id="Path_3972" data-name="Path 3972" d="M34.139,48.282h-.013a174.365,174.365,0,0,0-30.689,0l-.013,0q.131-1.979.346-3.957a2.62,2.62,0,0,1,2.395-2.334,160.391,160.391,0,0,1,25.233,0,2.62,2.62,0,0,1,2.395,2.334Q34.008,46.3,34.139,48.282Z" transform="translate(-3.217 -41.495)" fill="#617881"/>
    <ellipse id="Ellipse_239" data-name="Ellipse 239" cx="1.469" cy="1.469" rx="1.469" ry="1.469" transform="translate(2.494 1.857)" fill="#da4a54"/>
    <ellipse id="Ellipse_240" data-name="Ellipse 240" cx="1.469" cy="1.469" rx="1.469" ry="1.469" transform="translate(11.309 1.857)" fill="#86f1a7"/>
    <ellipse id="Ellipse_241" data-name="Ellipse 241" cx="1.469" cy="1.469" rx="1.469" ry="1.469" transform="translate(6.902 1.857)" fill="#f4dd45"/>
    <g id="Group_24679" data-name="Group 24679" transform="translate(3.064 10.003)">
      <path id="Path_3973" data-name="Path 3973" d="M155.26,206.956H136.4a.47.47,0,0,1,0-.94H155.26a.47.47,0,1,1,0,.94Z" transform="translate(-130.729 -206.016)" fill="#617881"/>
      <path id="Path_3974" data-name="Path 3974" d="M155.26,250.811H136.4a.47.47,0,0,1,0-.94H155.26a.47.47,0,0,1,0,.94Z" transform="translate(-130.729 -247.205)" fill="#617881"/>
      <path id="Path_3975" data-name="Path 3975" d="M74.929,294.665H50.867a.47.47,0,1,1,0-.939H74.929a.47.47,0,1,1,0,.939Z" transform="translate(-50.397 -288.393)" fill="#617881"/>
      <path id="Path_3976" data-name="Path 3976" d="M74.929,338.52H50.867a.47.47,0,1,1,0-.939H74.929a.47.47,0,1,1,0,.939Z" transform="translate(-50.397 -329.582)" fill="#617881"/>
      <path id="Path_3977" data-name="Path 3977" d="M59.278,382.38H50.87a.47.47,0,0,1,0-.94h8.408a.47.47,0,1,1,0,.94Z" transform="translate(-50.4 -370.775)" fill="#617881"/>
    </g>
    <g id="Group_24680" data-name="Group 24680" transform="translate(14.45 1.779)">
      <path id="Path_3978" data-name="Path 3978" d="M357.088,125.078a.47.47,0,0,1-.466-.419c-.092-.846.821-2.262,2.32-4.5,1.224-1.83,2.611-3.9,2.8-5.1a1.808,1.808,0,0,0-1.307-2.145.47.47,0,0,1,.336-.877,2.745,2.745,0,0,1,1.9,3.172c-.226,1.4-1.611,3.473-2.95,5.476-.6.9-1.176,1.759-1.588,2.477-.555.968-.59,1.3-.579,1.4a.47.47,0,0,1-.416.518Z" transform="translate(-349.382 -109.492)" fill="#b9e4ef"/>
      <path id="Path_3979" data-name="Path 3979" d="M383.026,74.151l.84-1.555a.81.81,0,0,0-.327-1.1l-1.206-.651a.809.809,0,0,0-1.1.327l-.84,1.555" transform="translate(-371.718 -70.751)" fill="#e4f6ff"/>
      <path id="Path_3980" data-name="Path 3980" d="M383.321,71.382a.809.809,0,0,0-1.1.327l-.84,1.555-.989-.534.84-1.555a.809.809,0,0,1,1.1-.327Z" transform="translate(-371.718 -70.751)" fill="#b9e4ef"/>
      <path id="Path_3981" data-name="Path 3981" d="M250.122,112.307c-2.871,5.315-6.259,9.051-7.568,8.344s-.042-5.589,2.829-10.9a33.673,33.673,0,0,1,4.427-6.493,1.214,1.214,0,0,1,1.473-.246l1.241.67a1.214,1.214,0,0,1,.6,1.367,33.67,33.67,0,0,1-3,7.263Z" transform="translate(-241.772 -100.909)" fill="#6bbef6"/>
      <path id="Path_3982" data-name="Path 3982" d="M242.554,120.653c-1.309-.707-.042-5.589,2.829-10.9a33.69,33.69,0,0,1,4.427-6.494,1.215,1.215,0,0,1,1.473-.246l.45.243c-.134-.073-.431.2-.72.653-1.065,1.682-2.456,4.077-3.911,6.772C244.23,115.992,242.194,120.458,242.554,120.653Z" transform="translate(-241.772 -100.91)" fill="#528ecb"/>
      <path id="Path_3983" data-name="Path 3983" d="M238.131,389.179a.47.47,0,0,1-.4-.716l.312-.508a.47.47,0,0,1,.8.492l-.312.508A.47.47,0,0,1,238.131,389.179Z" transform="translate(-237.661 -368.458)" fill="#da4a54"/>
    </g>
    <path id="Path_3984" data-name="Path 3984" d="M53.443,176.243a1.535,1.535,0,0,0-1.231-2.454H50.866a.47.47,0,0,0-.47.47v4.634a.47.47,0,0,0,.47.47h0s1.238-.006,1.579-.006a1.716,1.716,0,0,0,1-3.115Zm-1.231-1.514a.6.6,0,0,1,0,1.193h-.876v-1.194h.876Zm.235,3.689-1.111,0v-1.557h1.112a.778.778,0,1,1,0,1.555Z" transform="translate(-47.332 -165.745)" fill="#da4a54"/>
  </g>
</svg>
