<svg xmlns="http://www.w3.org/2000/svg" width="31.13" height="31.116" viewBox="0 0 31.13 31.116">
  <g id="link" transform="translate(0)">
    <path id="Path_3833" data-name="Path 3833" d="M20.762,179.3l2.954-4.476-2.954-.761a8.14,8.14,0,0,0-1.974-3.186,8.015,8.015,0,0,0-3.186-1.974l-.039.039-3.6-.142-1.6.1a8.016,8.016,0,0,0-3.186,1.974L2.4,175.663a8.2,8.2,0,1,0,11.609,11.6l4.782-4.77A8.139,8.139,0,0,0,20.762,179.3Zm-9.98,4.731a3.648,3.648,0,0,1-5.159-5.16l4.743-4.731,2.593,2.567,2.606,2.554Z" transform="translate(0.001 -158.548)" fill="#4a696f"/>
    <path id="Path_3834" data-name="Path 3834" d="M55.85,214.568l-4.782,4.77a8.209,8.209,0,0,1-11.609,0l3.225-3.225a3.647,3.647,0,0,0,5.159,0l4.782-4.77-2.605-2.554,5.83-5.83a8.14,8.14,0,0,1,1.974,3.186l2.954.761-2.954,4.476A8.139,8.139,0,0,1,55.85,214.568Z" transform="translate(-37.06 -190.626)" fill="#384949"/>
    <path id="Path_3835" data-name="Path 3835" d="M391.055,392.341l-1.29-1.29a.912.912,0,0,1,1.29-1.29l1.29,1.29a.912.912,0,1,1-1.29,1.29Z" transform="translate(-365.816 -365.82)" fill="#d2c5c2"/>
    <path id="Path_3836" data-name="Path 3836" d="M72.834,74.122l-1.29-1.29a.912.912,0,0,1,1.29-1.29l1.29,1.29a.912.912,0,0,1-1.29,1.29Z" transform="translate(-66.943 -66.949)" fill="#dfd7d5"/>
    <path id="Path_3837" data-name="Path 3837" d="M443.882,296.017a.912.912,0,0,1,1.117-.645l1.762.472a.912.912,0,0,1-.472,1.762l-1.762-.472A.913.913,0,0,1,443.882,296.017Z" transform="translate(-416.865 -277.391)" fill="#d2c5c2"/>
    <path id="Path_3838" data-name="Path 3838" d="M9.188,179.543A.912.912,0,0,1,10.3,178.9l1.762.472a.912.912,0,0,1-.472,1.762l-1.762-.472A.913.913,0,0,1,9.188,179.543Z" transform="translate(-8.6 -167.999)" fill="#dfd7d5"/>
    <path id="Path_3839" data-name="Path 3839" d="M295.848,446.753l-.472-1.762a.912.912,0,0,1,1.762-.472l.472,1.762a.912.912,0,1,1-1.762.472Z" transform="translate(-277.387 -416.863)" fill="#d2c5c2"/>
    <path id="Path_3840" data-name="Path 3840" d="M179.374,12.067,178.9,10.3a.912.912,0,1,1,1.762-.472l.472,1.762a.912.912,0,1,1-1.762.472Z" transform="translate(-167.995 -8.606)" fill="#dfd7d5"/>
    <path id="Path_3841" data-name="Path 3841" d="M182.292,2.52a8.209,8.209,0,0,0-11.609,0L165.9,7.29a8.14,8.14,0,0,0-1.974,3.186,8.266,8.266,0,0,0,0,5.237,8.191,8.191,0,0,0,5.16,5.16l.039-.039a3.659,3.659,0,0,0,0-5.16,3.659,3.659,0,0,1,0-5.16l4.782-4.77a3.586,3.586,0,0,1,2.58-1.058.591.591,0,0,1,.3.013,3.483,3.483,0,0,1,2.283,1.045,3.659,3.659,0,0,1,0,5.16l-4.743,4.731a8.266,8.266,0,0,1,0,5.237A8.315,8.315,0,0,0,177.51,18.9l4.782-4.77A8.221,8.221,0,0,0,182.292,2.52Z" transform="translate(-153.562 -0.116)" fill="#ffd400"/>
    <g id="Group_24657" data-name="Group 24657" transform="translate(12.34 2.404)">
      <path id="Path_3842" data-name="Path 3842" d="M206.188,261.155l-.039.039a8.128,8.128,0,0,1-3.186-1.973l3.225-3.225A3.659,3.659,0,0,1,206.188,261.155Z" transform="translate(-202.963 -242.841)" fill="#ff9f00"/>
      <path id="Path_3843" data-name="Path 3843" d="M349.462,51.265l-4.782,4.77a8.315,8.315,0,0,1-3.186,1.974,8.267,8.267,0,0,0,0-5.237l4.743-4.731a3.659,3.659,0,0,0,0-5.16l3.225-3.225A8.221,8.221,0,0,1,349.462,51.265Z" transform="translate(-333.071 -39.656)" fill="#ff9f00"/>
    </g>
  </g>
</svg>
