<svg xmlns="http://www.w3.org/2000/svg" width="31.13" height="31.13" viewBox="0 0 31.13 31.13">
  <g id="social-care" transform="translate(0)">
    <g id="Group_24677" data-name="Group 24677" transform="translate(0.608 10.121)">
      <path id="Path_3950" data-name="Path 3950" d="M15.831,179.977l-1.985-2.112a3.657,3.657,0,0,1-.992-2.5v-7.479a1.427,1.427,0,0,0-1.118-1.394h0A1.427,1.427,0,0,0,10,167.881v9.427a5.313,5.313,0,0,0,.981,3.075l1.084,1.527,2.594,3.654.915,1.289H22.49l-1-4.748a8.393,8.393,0,0,0-3.531-5.242l-2.127-1.43a1.524,1.524,0,0,0-1.991.254h0a1.64,1.64,0,0,0,.035,2.213c1.165,1.234,2.9,3.079,2.9,3.079" transform="translate(-10 -166.453)" fill="#ffcdac"/>
      <path id="Path_3951" data-name="Path 3951" d="M303.239,179.977l1.985-2.112a3.657,3.657,0,0,0,.992-2.5v-7.479a1.427,1.427,0,0,1,1.118-1.394h0a1.427,1.427,0,0,1,1.737,1.394v9.427a5.313,5.313,0,0,1-.981,3.075l-1.084,1.527-2.594,3.654-.915,1.289h-6.915l1-4.748a8.394,8.394,0,0,1,3.531-5.242l2.127-1.43a1.524,1.524,0,0,1,1.991.254h0a1.64,1.64,0,0,1-.035,2.213c-1.165,1.234-2.9,3.079-2.9,3.079" transform="translate(-279.157 -166.453)" fill="#ffcdac"/>
    </g>
    <g id="Group_24678" data-name="Group 24678" transform="translate(6.286 10.921)">
      <path id="Path_3952" data-name="Path 3952" d="M280.137,181.609a2.244,2.244,0,0,1,1.1-.627l1.552-.372h0v-.948h1.9v.951h0l1.548.37a2.25,2.25,0,0,1,1.727,2.188v1.136h-3.432Z" transform="translate(-269.391 -179.659)" fill="#7d9bff"/>
      <path id="Path_3953" data-name="Path 3953" d="M111.209,181.558a2.244,2.244,0,0,0-1.1-.627l-1.552-.372h0v-.948h-1.9v.951h0l-1.548.37a2.25,2.25,0,0,0-1.727,2.188v1.136h3.432Z" transform="translate(-103.39 -179.611)" fill="#7d9bff"/>
    </g>
    <path id="Path_3954" data-name="Path 3954" d="M163.789,211.07l-2.162.518a3.133,3.133,0,0,0-2.4,3.047v2.186h11.768v-2.185a3.133,3.133,0,0,0-2.405-3.048l-2.157-.515" transform="translate(-149.543 -198.237)" fill="#78d2fa"/>
    <path id="Path_3955" data-name="Path 3955" d="M236.954,189.357v1.324l-1.32,3-1.321-3.005v-1.32" transform="translate(-220.067 -177.844)" fill="#ffb487"/>
    <path id="Path_3956" data-name="Path 3956" d="M213.6,114.551v1.829a2.943,2.943,0,0,1-2.943,2.943h0a2.943,2.943,0,0,1-2.943-2.943v-1.829" transform="translate(-195.087 -107.586)" fill="#ffcdac"/>
    <path id="Path_3957" data-name="Path 3957" d="M210.659,64h0a2.943,2.943,0,0,0-2.943,2.943v.709h1.439a3.234,3.234,0,0,0,2.479-1.157h0l1.969,1.157v-.709A2.943,2.943,0,0,0,210.659,64Z" transform="translate(-195.087 -60.109)" fill="#bebebe"/>
    <path id="Path_3958" data-name="Path 3958" d="M142.341,92.233v-.509a2.113,2.113,0,0,0-2.113-2.113h0a2.113,2.113,0,0,0-2.113,2.113v.509h1.457a5.038,5.038,0,0,0,2.59-.717h0" transform="translate(-129.718 -84.163)" fill="#f5b955"/>
    <path id="Path_3959" data-name="Path 3959" d="M142.341,125.9v1.313a2.113,2.113,0,0,1-2.113,2.113h0a2.113,2.113,0,0,1-2.113-2.113V125.9" transform="translate(-129.718 -118.249)" fill="#ffcdac"/>
    <path id="Path_3960" data-name="Path 3960" d="M304.5,92.284v-.509a2.113,2.113,0,0,1,2.113-2.113h0a2.113,2.113,0,0,1,2.113,2.113v.509H307.27a5.038,5.038,0,0,1-2.59-.717h0" transform="translate(-285.987 -84.21)" fill="#f5b955"/>
    <path id="Path_3961" data-name="Path 3961" d="M304.5,125.955v1.313a2.113,2.113,0,0,0,2.113,2.113h0a2.113,2.113,0,0,0,2.113-2.113v-1.313" transform="translate(-285.987 -118.297)" fill="#ffcdac"/>
    <path id="Path_3962" data-name="Path 3962" d="M77.728,471.048a.608.608,0,1,0-.992.7l.915,1.289a.608.608,0,1,0,.992-.7Z" transform="translate(-71.966 -442.167)"/>
    <path id="Path_3963" data-name="Path 3963" d="M12.7,172.588a8.954,8.954,0,0,0-3.787-5.621l-2.127-1.43a2.139,2.139,0,0,0-2.712.277v-7.326A2.035,2.035,0,0,0,.763,156.9,2.026,2.026,0,0,0,0,158.487v9.427a5.89,5.89,0,0,0,1.093,3.427l1.084,1.527a.608.608,0,0,0,.992-.7l-1.084-1.527a4.68,4.68,0,0,1-.868-2.724v-9.427a.819.819,0,1,1,1.639,0v7.48a4.248,4.248,0,0,0,1.1,2.852c.03.036.061.072.094.107l1.326,1.407L6,171l.006.006.939,1a.608.608,0,1,0,.886-.832l-1.536-1.634L4.9,168.055l-.01-.011a1.026,1.026,0,0,1,.02-1.345.919.919,0,0,1,1.2-.153l2.127,1.43a7.744,7.744,0,0,1,3.275,4.862l1,4.748a.608.608,0,1,0,1.19-.25Z" transform="translate(-0.001 -146.939)"/>
    <path id="Path_3964" data-name="Path 3964" d="M56.987,441.83a.608.608,0,1,0-.99.706l0,.005a.608.608,0,0,0,.99-.706Z" transform="translate(-52.487 -414.727)"/>
    <path id="Path_3965" data-name="Path 3965" d="M299.524,156.9a2.035,2.035,0,0,0-3.309,1.588v7.326a2.14,2.14,0,0,0-2.712-.277l-2.127,1.43a8.954,8.954,0,0,0-3.787,5.621l-1,4.748a.608.608,0,1,0,1.19.25l1-4.748a7.744,7.744,0,0,1,3.275-4.862l2.127-1.43a.919.919,0,0,1,1.2.153,1.026,1.026,0,0,1,.021,1.343l-.011.013-2.93,3.117a.608.608,0,1,0,.886.832c.008-.009,2.493-2.65,2.9-3.078.033-.035.064-.071.094-.107a4.249,4.249,0,0,0,1.1-2.852v-7.48a.819.819,0,1,1,1.639,0v9.427a4.68,4.68,0,0,1-.868,2.724l-4.594,6.471a.608.608,0,1,0,.992.7l4.594-6.471a5.889,5.889,0,0,0,1.093-3.427V158.49A2.026,2.026,0,0,0,299.524,156.9Z" transform="translate(-269.156 -146.941)"/>
    <path id="Path_3966" data-name="Path 3966" d="M109.161,69.91a.608.608,0,0,0,.608-.608V67.117c0-.075,0-.15-.007-.224h2.8a.608.608,0,0,0,.608-.608V65.149a2.848,2.848,0,0,0-2.194-2.779l-1.082-.258v-.194a2.719,2.719,0,0,0,1.164-2.23V58.282a2.719,2.719,0,0,0-4.487-2.068,3.55,3.55,0,0,0-6.58,0A2.719,2.719,0,0,0,95.5,58.282v1.406a2.719,2.719,0,0,0,1.164,2.23v.194l-1.082.258a2.848,2.848,0,0,0-2.194,2.779v1.136a.608.608,0,0,0,.608.608h2.794c0,.074-.007.148-.007.223V69.3a.608.608,0,0,0,.608.608h3.655a.608.608,0,0,0,0-1.216h-.628V67.437a.608.608,0,0,0-1.216,0v1.257H98V67.115a2.517,2.517,0,0,1,1.937-2.456l1.668-.4,1.117,2.54a.608.608,0,0,0,.557.363h0a.608.608,0,0,0,.557-.363l1.115-2.537,1.663.4a2.517,2.517,0,0,1,1.939,2.456v1.577h-1.2V67.437a.608.608,0,1,0-1.216,0v1.257h-.689a.608.608,0,0,0,0,1.216Zm-7.811-7.377a2.853,2.853,0,0,0-.487-.164l-1.086-.26v-.189a2.743,2.743,0,0,0,.527-.481,3.58,3.58,0,0,0,1.046,1.048Zm-4.633-2.845V59.4h.849a5.648,5.648,0,0,0,2.162-.431v.72a1.505,1.505,0,0,1-3.01,0Zm4.232-.178v-.642h.831a3.831,3.831,0,0,0,2.584-1l1.254.737V59.6a2.335,2.335,0,0,1-4.668-.089Zm4.258,3.025v-.041a3.578,3.578,0,0,0,1.055-1.051,2.743,2.743,0,0,0,.523.476v.189l-1.086.26A2.862,2.862,0,0,0,105.207,62.535Zm1.627-2.847V59.6c0-.03,0-.059,0-.089v-.541a5.648,5.648,0,0,0,2.16.43h.849v.29a1.505,1.505,0,1,1-3.01,0Zm1.505-2.911a1.507,1.507,0,0,1,1.5,1.406H109a4.432,4.432,0,0,1-2.039-.5A1.507,1.507,0,0,1,108.339,56.776Zm-7.39.775a2.335,2.335,0,0,1,4.641-.371l-1.024-.6a.608.608,0,0,0-.774.134,2.62,2.62,0,0,1-2.013.939h-.831v-.1Zm-2.727-.775a1.507,1.507,0,0,1,1.382.909,4.432,4.432,0,0,1-2.039.5h-.845A1.507,1.507,0,0,1,98.223,56.776Zm1.432,6.7a3.729,3.729,0,0,0-2.584,2.2H94.606v-.528a1.636,1.636,0,0,1,1.26-1.6l1.548-.37a.608.608,0,0,0,.467-.591v-.2a2.64,2.64,0,0,0,.68,0v.173c0,.009,0,.018,0,.027a.609.609,0,0,0,.494.6l.907.217Zm3.625,1.568-.713-1.622v-.434a3.563,3.563,0,0,0,1.425,0v.436Zm3.618-1.567-.305-.073.912-.219a.609.609,0,0,0,.5-.6s0-.01,0-.014v-.187a2.64,2.64,0,0,0,.68,0v.2a.608.608,0,0,0,.467.591l1.548.37a1.636,1.636,0,0,1,1.26,1.6v.528h-2.473A3.728,3.728,0,0,0,106.9,63.478Z" transform="translate(-87.712 -50.717)"/>
    <path id="Path_3967" data-name="Path 3967" d="M246.608,295.67a.607.607,0,1,0,.43.178A.611.611,0,0,0,246.608,295.67Z" transform="translate(-231.043 -277.693)"/>
    <path id="Path_3968" data-name="Path 3968" d="M246.6,2.126a.608.608,0,0,0,.608-.608V.608a.608.608,0,1,0-1.216,0v.91A.608.608,0,0,0,246.6,2.126Z" transform="translate(-231.038 0)"/>
    <path id="Path_3969" data-name="Path 3969" d="M192.416,20.888a.608.608,0,1,0,.859-.86l-.638-.637a.608.608,0,1,0-.859.86Z" transform="translate(-179.95 -18.045)"/>
    <path id="Path_3970" data-name="Path 3970" d="M290.354,21.319a.606.606,0,0,0,.43-.178l.633-.633a.608.608,0,1,0-.86-.859l-.633.633a.608.608,0,0,0,.43,1.038Z" transform="translate(-272.129 -18.286)"/>
  </g>
</svg>
