<svg xmlns="http://www.w3.org/2000/svg" width="31.094" height="31.13" viewBox="0 0 31.094 31.13">
  <g id="categories" transform="translate(0)">
    <g id="Group_24666" data-name="Group 24666" transform="translate(3.488 3.642)">
      <g id="Group_24658" data-name="Group 24658" transform="translate(13.253 12.98)">
        <ellipse id="Ellipse_235" data-name="Ellipse 235" cx="5.42" cy="5.42" rx="5.42" ry="5.42" fill="#fef0ae"/>
      </g>
      <g id="Group_24659" data-name="Group 24659" transform="translate(14.805 13.684)">
        <path id="Path_3844" data-name="Path 3844" d="M310.443,289.677a5.42,5.42,0,0,1-9.287,3.8,5.42,5.42,0,0,0,6.541-8.512A5.418,5.418,0,0,1,310.443,289.677Z" transform="translate(-301.156 -284.961)" fill="#fee45a"/>
      </g>
      <g id="Group_24660" data-name="Group 24660">
        <path id="Path_3845" data-name="Path 3845" d="M66.55,70.8H61.418a3.758,3.758,0,0,1-3.758-3.758V63.665a3.758,3.758,0,0,1,3.758-3.758h3.376a3.758,3.758,0,0,1,3.758,3.758V68.8A2,2,0,0,1,66.55,70.8Z" transform="translate(-57.66 -59.907)" fill="#94dfb6"/>
      </g>
      <g id="Group_24661" data-name="Group 24661" transform="translate(13.227)">
        <path id="Path_3846" data-name="Path 3846" d="M282.335,70.8H277.2a2,2,0,0,1-2-2V63.665a3.758,3.758,0,0,1,3.758-3.758h3.376a3.758,3.758,0,0,1,3.758,3.758v3.376A3.758,3.758,0,0,1,282.335,70.8Z" transform="translate(-275.201 -59.907)" fill="#94dfb6"/>
      </g>
      <g id="Group_24662" data-name="Group 24662" transform="translate(0 12.953)">
        <path id="Path_3847" data-name="Path 3847" d="M64.794,283.844H61.418a3.758,3.758,0,0,1-3.758-3.758V276.71a3.758,3.758,0,0,1,3.758-3.758H66.55a2,2,0,0,1,2,2v5.132A3.758,3.758,0,0,1,64.794,283.844Z" transform="translate(-57.66 -272.952)" fill="#94dfb6"/>
      </g>
      <g id="Group_24663" data-name="Group 24663" transform="translate(5.824 0)">
        <path id="Path_3848" data-name="Path 3848" d="M158.51,63.666V68.8a2,2,0,0,1-2,2H155.2a2,2,0,0,0,2-2V63.666a3.758,3.758,0,0,0-3.758-3.758h1.31A3.758,3.758,0,0,1,158.51,63.666Z" transform="translate(-153.441 -59.908)" fill="#5dc795"/>
      </g>
      <g id="Group_24664" data-name="Group 24664" transform="translate(19.051 0)">
        <path id="Path_3849" data-name="Path 3849" d="M376.055,63.666v3.376A3.758,3.758,0,0,1,372.3,70.8h-1.31a3.758,3.758,0,0,0,3.758-3.758V63.666a3.758,3.758,0,0,0-3.758-3.758h1.31a3.758,3.758,0,0,1,3.758,3.758Z" transform="translate(-370.987 -59.908)" fill="#5dc795"/>
      </g>
      <g id="Group_24665" data-name="Group 24665" transform="translate(5.823 12.953)">
        <path id="Path_3850" data-name="Path 3850" d="M158.509,274.952v5.132a3.758,3.758,0,0,1-3.758,3.758h-1.31a3.758,3.758,0,0,0,3.758-3.758v-5.132a2,2,0,0,0-2-2h1.31A2,2,0,0,1,158.509,274.952Z" transform="translate(-153.44 -272.95)" fill="#5dc795"/>
      </g>
    </g>
    <g id="Group_24674" data-name="Group 24674" transform="translate(0 0)">
      <g id="Group_24669" data-name="Group 24669" transform="translate(27.001 0.455)">
        <g id="Group_24667" data-name="Group 24667">
          <path id="Path_3851" data-name="Path 3851" d="M446.03,7.608A3.189,3.189,0,0,1,444.5,9.26a.194.194,0,0,0,0,.351,3.189,3.189,0,0,1,1.529,1.653.194.194,0,0,0,.358,0,3.189,3.189,0,0,1,1.529-1.653.194.194,0,0,0,0-.351,3.189,3.189,0,0,1-1.529-1.653A.194.194,0,0,0,446.03,7.608Z" transform="translate(-444.39 -7.489)" fill="#fef0ae"/>
        </g>
        <g id="Group_24668" data-name="Group 24668" transform="translate(1.111 1.203)">
          <path id="Path_3852" data-name="Path 3852" d="M465.081,28.195a3.187,3.187,0,0,0-1.528,1.653.2.2,0,0,1-.358,0,3.572,3.572,0,0,0-.529-.87,3.36,3.36,0,0,1,1.593-1.69.1.1,0,0,0,.018-.011,2.853,2.853,0,0,0,.8.568A.194.194,0,0,1,465.081,28.195Z" transform="translate(-462.666 -27.276)" fill="#fee45a"/>
        </g>
      </g>
      <g id="Group_24673" data-name="Group 24673">
        <g id="Group_24670" data-name="Group 24670" transform="translate(0.455 26.782)">
          <path id="Path_3853" data-name="Path 3853" d="M9.424,440.607A3.189,3.189,0,0,1,7.9,442.259a.194.194,0,0,0,0,.351,3.189,3.189,0,0,1,1.529,1.653.194.194,0,0,0,.358,0,3.189,3.189,0,0,1,1.529-1.653.194.194,0,0,0,0-.351,3.189,3.189,0,0,1-1.529-1.653A.194.194,0,0,0,9.424,440.607Z" transform="translate(-7.785 -440.488)" fill="#fef0ae"/>
        </g>
        <g id="Group_24671" data-name="Group 24671" transform="translate(1.567 27.985)">
          <path id="Path_3854" data-name="Path 3854" d="M28.475,461.193a3.187,3.187,0,0,0-1.528,1.653.2.2,0,0,1-.358,0,3.57,3.57,0,0,0-.529-.87,3.36,3.36,0,0,1,1.593-1.69.1.1,0,0,0,.018-.011,2.854,2.854,0,0,0,.8.568A.194.194,0,0,1,28.475,461.193Z" transform="translate(-26.06 -460.274)" fill="#fee45a"/>
        </g>
        <g id="Group_24672" data-name="Group 24672">
          <path id="Path_3855" data-name="Path 3855" d="M57.759,52.417H54.384a4.218,4.218,0,0,0-4.214,4.214v1.477a.455.455,0,0,0,.911,0V56.631a3.306,3.306,0,0,1,3.3-3.3h3.376a3.306,3.306,0,0,1,3.3,3.3v5.132a1.548,1.548,0,0,1-1.546,1.546H54.383a3.307,3.307,0,0,1-3.3-3.091.455.455,0,1,0-.909.058,4.22,4.22,0,0,0,4.205,3.944h5.132a2.46,2.46,0,0,0,2.457-2.457V56.631A4.218,4.218,0,0,0,57.759,52.417Z" transform="translate(-47.138 -49.23)"/>
          <path id="Path_3856" data-name="Path 3856" d="M275.3,52.417h-3.376a4.218,4.218,0,0,0-4.214,4.214v5.132a2.46,2.46,0,0,0,2.457,2.457H275.3a4.218,4.218,0,0,0,4.214-4.214V56.631A4.218,4.218,0,0,0,275.3,52.417Zm3.3,7.589a3.307,3.307,0,0,1-3.3,3.3h-5.132a1.548,1.548,0,0,1-1.546-1.546V56.631a3.306,3.306,0,0,1,3.3-3.3H275.3a3.307,3.307,0,0,1,3.3,3.3Z" transform="translate(-251.451 -49.23)"/>
          <path id="Path_3857" data-name="Path 3857" d="M59.516,265.462H54.384a4.218,4.218,0,0,0-4.214,4.214v3.376a4.218,4.218,0,0,0,4.214,4.214h3.376a4.218,4.218,0,0,0,4.214-4.214v-5.132A2.46,2.46,0,0,0,59.516,265.462Zm1.546,7.589a3.306,3.306,0,0,1-3.3,3.3H54.384a3.306,3.306,0,0,1-3.3-3.3v-3.376a3.306,3.306,0,0,1,3.3-3.3h5.132a1.548,1.548,0,0,1,1.546,1.546v5.132Z" transform="translate(-47.138 -249.322)"/>
          <path id="Path_3858" data-name="Path 3858" d="M274.019,265.895a5.83,5.83,0,0,0-2.427.523.455.455,0,1,0,.377.829,4.97,4.97,0,1,1-1.569,1.124.455.455,0,0,0-.664-.624,5.875,5.875,0,1,0,4.283-1.853Z" transform="translate(-251.859 -249.728)"/>
          <path id="Path_3859" data-name="Path 3859" d="M333.061,301.89a.455.455,0,1,0-.5.762,2.432,2.432,0,0,0,1.274.462v.374a.455.455,0,1,0,.911,0v-.415a2.029,2.029,0,0,0,1.524-1.629,1.762,1.762,0,0,0-1.213-2.017c-.1-.036-.207-.074-.311-.113v-1.758a1.121,1.121,0,0,1,.386.2l.107.1a.455.455,0,0,0,.616-.671l-.106-.1a2.108,2.108,0,0,0-1-.461v-.334a.455.455,0,0,0-.911,0v.367c-.045.011-.091.023-.138.037A1.673,1.673,0,0,0,332.551,298a1.48,1.48,0,0,0,.487,1.458,3.812,3.812,0,0,0,.8.462V302.2A1.575,1.575,0,0,1,333.061,301.89Zm1.686-1.608.008,0a.869.869,0,0,1,.618,1.007,1.114,1.114,0,0,1-.626.824Zm-1.147-1.536a.59.59,0,0,1-.154-.573.8.8,0,0,1,.39-.557V298.9A2.129,2.129,0,0,1,333.6,298.746Z" transform="translate(-312.166 -277.846)"/>
          <path id="Path_3860" data-name="Path 3860" d="M441.076,1.814a2.726,2.726,0,0,1-1.3-1.421.65.65,0,0,0-1.194,0,2.726,2.726,0,0,1-1.3,1.421.65.65,0,0,0,0,1.175,2.727,2.727,0,0,1,1.3,1.421.65.65,0,0,0,1.194,0,2.726,2.726,0,0,1,1.3-1.421.65.65,0,0,0,0-1.175Zm-1.9,1.763A3.569,3.569,0,0,0,438.08,2.4a3.57,3.57,0,0,0,1.094-1.175A3.569,3.569,0,0,0,440.268,2.4,3.569,3.569,0,0,0,439.174,3.577Z" transform="translate(-410.354 0)"/>
          <path id="Path_3861" data-name="Path 3861" d="M4.471,434.813a2.726,2.726,0,0,1-1.3-1.421.65.65,0,0,0-1.194,0,2.726,2.726,0,0,1-1.3,1.421.65.65,0,0,0,0,1.175,2.726,2.726,0,0,1,1.3,1.421.65.65,0,0,0,1.194,0,2.726,2.726,0,0,1,1.3-1.421.649.649,0,0,0,0-1.175Zm-1.9,1.763A3.568,3.568,0,0,0,1.475,435.4a3.567,3.567,0,0,0,1.094-1.175A3.569,3.569,0,0,0,3.663,435.4,3.568,3.568,0,0,0,2.569,436.576Z" transform="translate(-0.295 -406.672)"/>
        </g>
      </g>
    </g>
  </g>
</svg>
