<svg xmlns="http://www.w3.org/2000/svg" width="35.443" height="35.444" viewBox="0 0 35.443 35.444">
  <g id="edit_1_" data-name="edit (1)" transform="translate(0)">
    <path id="Path_3785" data-name="Path 3785" d="M16.184,2.954H14.559a4.07,4.07,0,0,0-7.827,0H5.108A1.116,1.116,0,0,0,4,4.061V6.277A2.6,2.6,0,0,0,6.584,8.861h8.123a2.6,2.6,0,0,0,2.584-2.584V4.061A1.116,1.116,0,0,0,16.184,2.954Z" transform="translate(1.907)" fill="#fff"/>
    <path id="Path_3786" data-name="Path 3786" d="M21.045,3h-.369V4.846a4.059,4.059,0,0,1-4.061,4.061H8.492A4.059,4.059,0,0,1,4.431,4.846V3H4.061A4.059,4.059,0,0,0,0,7.061V25.522a4.059,4.059,0,0,0,4.061,4.061h10.9l.325-1.817A4.113,4.113,0,0,1,16.408,25.6l1.181-1.181H5.538a1.108,1.108,0,0,1,0-2.215h14.03a.5.5,0,0,1,.207.03h.015l5.317-5.317V7.061A4.059,4.059,0,0,0,21.045,3ZM19.568,19.615H5.538a1.108,1.108,0,1,1,0-2.215h14.03a1.108,1.108,0,1,1,0,2.215Zm0-4.8H5.538a1.108,1.108,0,0,1,0-2.215h14.03a1.108,1.108,0,0,1,0,2.215Z" transform="translate(0 1.431)" fill="#fff"/>
    <path id="Path_3787" data-name="Path 3787" d="M12.884,29.877a1.108,1.108,0,0,1-1.09-1.3l.783-4.438a1.112,1.112,0,0,1,.307-.591L23.85,12.583c1.347-1.35,2.67-.985,3.394-.261l1.827,1.827a2.586,2.586,0,0,1,0,3.655L18.105,28.77a1.091,1.091,0,0,1-.591.307l-4.438.783a1.056,1.056,0,0,1-.192.018Zm4.438-1.89h.015Z" transform="translate(5.616 5.567)" fill="#fff"/>
  </g>
</svg>
