<svg id="web-site" xmlns="http://www.w3.org/2000/svg" width="40.977" height="35.808" viewBox="0 0 40.977 35.808">
  <path id="Path_3779" data-name="Path 3779" d="M40.977,1.835a3.507,3.507,0,0,0-3.5-3.5H3.5A3.507,3.507,0,0,0,0,1.835V5.31H40.977ZM3.872,4.147A2.312,2.312,0,1,1,6.185,1.835,2.313,2.313,0,0,1,3.872,4.147Zm5.354,0a2.312,2.312,0,1,1,2.313-2.312A2.312,2.312,0,0,1,9.226,4.147Zm5.354,0a2.312,2.312,0,1,1,2.312-2.312A2.312,2.312,0,0,1,14.58,4.147Zm0,0" transform="translate(0 1.668)" fill="#fff"/>
  <path id="Path_3780" data-name="Path 3780" d="M99.737,29.855a.826.826,0,1,0,.826.826A.826.826,0,0,0,99.737,29.855Zm0,0" transform="translate(-90.51 -27.178)" fill="#fff"/>
  <path id="Path_3781" data-name="Path 3781" d="M3.5,125.34h33.97a3.507,3.507,0,0,0,3.5-3.5V98H0v23.84A3.507,3.507,0,0,0,3.5,125.34Zm20.576-22.09H35.757a.743.743,0,1,1,0,1.486H24.079a.743.743,0,0,1,0-1.486Zm0,5.373H35.757a.743.743,0,1,1,0,1.486H24.079a.743.743,0,0,1,0-1.486Zm0,5.373H35.757a.743.743,0,1,1,0,1.486H24.079a.743.743,0,1,1,0-1.486Zm0,5.373H35.757a.743.743,0,0,1,0,1.486H24.079a.743.743,0,0,1,0-1.486ZM4.246,103.992a.743.743,0,0,1,.743-.743H18.471a.743.743,0,0,1,.743.743V120.11a.743.743,0,0,1-.743.743H4.989a.743.743,0,0,1-.743-.743Zm0,0" transform="translate(0 -89.532)" fill="#fff"/>
  <path id="Path_3782" data-name="Path 3782" d="M162.78,29.855a.826.826,0,1,0,.826.826A.826.826,0,0,0,162.78,29.855Zm0,0" transform="translate(-148.199 -27.178)" fill="#fff"/>
  <path id="Path_3783" data-name="Path 3783" d="M36.693,29.855a.826.826,0,1,0,.827.826A.826.826,0,0,0,36.693,29.855Zm0,0" transform="translate(-32.821 -27.178)" fill="#fff"/>
  <path id="Path_3784" data-name="Path 3784" d="M67.5,177.352h12v14.632h-12Zm0,0" transform="translate(-61.767 -162.148)" fill="#fff"/>
</svg>
