<svg id="teach" xmlns="http://www.w3.org/2000/svg" width="36.487" height="36.487" viewBox="0 0 36.487 36.487">
  <g id="teacher" transform="translate(0 0)">
    <path id="Path_3770" data-name="Path 3770" d="M33.23,92.668a1.074,1.074,0,0,1,1.45.449l4.262,8.088a3.543,3.543,0,0,1,1.186-.2h2.83a5.241,5.241,0,0,1,5.233-5.2h1.885a4.606,4.606,0,0,1-.727-2.489v-2.09a4.636,4.636,0,1,1,9.271.07v2.019a4.606,4.606,0,0,1-.727,2.489h2.666a5.169,5.169,0,0,1,.993.1V79.81H29.25V102.7a.715.715,0,0,0,.715.715h6.785a3.567,3.567,0,0,1,.458-.9l-4.428-8.4A1.073,1.073,0,0,1,33.23,92.668Zm1.409-9.879h11a1.073,1.073,0,1,1,0,2.146h-11a1.073,1.073,0,0,1,0-2.146Zm0,5h11a1.073,1.073,0,0,1,0,2.146h-11a1.073,1.073,0,0,1,0-2.146Z" transform="translate(-27.157 -74.1)" fill="#fff"/>
    <path id="Path_3771" data-name="Path 3771" d="M183.239,333.27H170.871a3.092,3.092,0,0,0-3.086,3.089V337.4a1.073,1.073,0,0,1-1.073,1.073h-3.9a1.426,1.426,0,0,0,0,2.851h6.478a1.131,1.131,0,0,0,1.128-1.13v-1.617a1.093,1.093,0,0,1,1.022-1.1,1.073,1.073,0,0,1,1.124,1.072v6.65a.715.715,0,0,0,.715.715h7.491v-7.335a1.093,1.093,0,0,1,1.022-1.1,1.073,1.073,0,0,1,1.124,1.072v7.365h2.7a.715.715,0,0,0,.715-.715v-8.839A3.091,3.091,0,0,0,183.239,333.27Z" transform="translate(-149.838 -309.426)" fill="#fff"/>
    <path id="Path_3772" data-name="Path 3772" d="M340.19,206.969v2.09a2.489,2.489,0,0,0,4.978,0v-2.09a2.489,2.489,0,0,0-4.978,0Z" transform="translate(-315.851 -189.851)" fill="#fff"/>
    <path id="Path_3773" data-name="Path 3773" d="M0,.715V2.848a.715.715,0,0,0,.715.715H35.772a.715.715,0,0,0,.715-.715V.715A.715.715,0,0,0,35.772,0H.715A.715.715,0,0,0,0,.715Z" transform="translate(0 0)" fill="#fff"/>
  </g>
</svg>
