<svg id="student" xmlns="http://www.w3.org/2000/svg" width="35.636" height="37.893" viewBox="0 0 35.636 37.893">
  <g id="Group_24647" data-name="Group 24647" transform="translate(0.111 0)">
    <g id="Group_24646" data-name="Group 24646" transform="translate(0 0)">
      <path id="Path_3774" data-name="Path 3774" d="M50.054,17.966V6.383a1.09,1.09,0,0,0-.118-.479,1.051,1.051,0,0,0,.118-.354,1.111,1.111,0,0,0-.806-1.068L33.707.042a1.118,1.118,0,0,0-.609,0L17.556,4.482a1.111,1.111,0,0,0,0,2.136l5.855,1.673V9.6A3.291,3.291,0,0,0,25.2,12.562a19.274,19.274,0,0,0,16.409,0A3.292,3.292,0,0,0,43.393,9.6V8.291l4.441-1.269V17.966a3.325,3.325,0,0,0-2.22,3.126v2.22a1.11,1.11,0,0,0,1.11,1.11h4.441a1.11,1.11,0,0,0,1.11-1.11v-2.22A3.325,3.325,0,0,0,50.054,17.966Z" transform="translate(-16.75 0.001)" fill="#fff"/>
    </g>
  </g>
  <g id="Group_24649" data-name="Group 24649" transform="translate(6.727 14.194)">
    <g id="Group_24648" data-name="Group 24648" transform="translate(0)">
      <path id="Path_3775" data-name="Path 3775" d="M125.247,192.294a21.166,21.166,0,0,1-18.367,0,5.13,5.13,0,0,1-.741-.51,11.2,11.2,0,0,0,5.425,9.123s1.558.736,2.045.875l0,0a8.9,8.9,0,0,0,2.453.383,9.084,9.084,0,0,0,3-.566c.512-.182,1.493-.686,1.493-.686a11.2,11.2,0,0,0,5.429-9.125A5.149,5.149,0,0,1,125.247,192.294Z" transform="translate(-106.139 -191.783)" fill="#fff"/>
    </g>
  </g>
  <g id="Group_24651" data-name="Group 24651" transform="translate(14.057 26.451)">
    <g id="Group_24650" data-name="Group 24650" transform="translate(0)">
      <path id="Path_3776" data-name="Path 3776" d="M207.777,357.738a11.014,11.014,0,0,1-2.6-.341l2.6,3.893,2.581-3.889A11.017,11.017,0,0,1,207.777,357.738Z" transform="translate(-205.182 -357.397)" fill="#fff"/>
    </g>
  </g>
  <g id="Group_24653" data-name="Group 24653" transform="translate(17.762 24.8)">
    <g id="Group_24652" data-name="Group 24652" transform="translate(0)">
      <path id="Path_3777" data-name="Path 3777" d="M260.53,335.1c-.02.013-.042.022-.061.035l-.934,1.4c0,.052-4.257,6.418-4.285,6.461v5.2h14.432a1.109,1.109,0,0,0,1.11-1.11A12.176,12.176,0,0,0,260.53,335.1Zm2.491,8.652H260.8a1.11,1.11,0,0,1,0-2.22h2.22a1.11,1.11,0,1,1,0,2.22Z" transform="translate(-255.25 -335.096)" fill="#fff"/>
    </g>
  </g>
  <g id="Group_24655" data-name="Group 24655" transform="translate(0 24.79)">
    <g id="Group_24654" data-name="Group 24654" transform="translate(0)">
      <path id="Path_3778" data-name="Path 3778" d="M25.553,334.994c-.018-.012-.038-.02-.056-.033A12.186,12.186,0,0,0,15.25,346.953a1.11,1.11,0,0,0,1.11,1.11H30.792v-5.2C25.761,335.308,26.788,336.852,25.553,334.994Z" transform="translate(-15.25 -334.961)" fill="#fff"/>
    </g>
  </g>
</svg>
