<svg xmlns="http://www.w3.org/2000/svg" width="40.292" height="35.808" viewBox="0 0 40.292 35.808">
  <path id="Icon_awesome-edit" data-name="Icon awesome-edit" d="M28.162,5.82l6.31,6.31a.684.684,0,0,1,0,.965L19.194,28.372l-6.491.72a1.361,1.361,0,0,1-1.5-1.5l.72-6.491L27.2,5.82A.684.684,0,0,1,28.162,5.82Zm11.332-1.6L36.08.8a2.736,2.736,0,0,0-3.861,0L29.743,3.281a.684.684,0,0,0,0,.965l6.31,6.31a.684.684,0,0,0,.965,0l2.476-2.476a2.736,2.736,0,0,0,0-3.861Zm-12.633,20v7.121H4.477V8.954H20.551a.86.86,0,0,0,.595-.245l2.8-2.8a.839.839,0,0,0-.595-1.434H3.358A3.358,3.358,0,0,0,0,7.834V32.457a3.358,3.358,0,0,0,3.358,3.358H27.98a3.358,3.358,0,0,0,3.358-3.358V21.419a.841.841,0,0,0-1.434-.595l-2.8,2.8A.86.86,0,0,0,26.861,24.217Z" transform="translate(0 -0.007)" fill="#fff"/>
</svg>
