<svg id="placeholder" xmlns="http://www.w3.org/2000/svg" width="41.352" height="39.113" viewBox="0 0 41.352 39.113">
  <path id="Path_3788" data-name="Path 3788" d="M222.714,91.5l.078-.922a.549.549,0,0,1,.2-.379.536.536,0,0,1,.4-.129h.017l.25.026A2.549,2.549,0,0,0,226,89.042a.435.435,0,0,1,.594-.1,4.151,4.151,0,0,1,1.663,2.3l.043-.663a2.892,2.892,0,1,0-5.772,0l.06.9c.035.009.078.017.121.026Z" transform="translate(-204.734 -82.46)" fill="#fff"/>
  <path id="Path_3789" data-name="Path 3789" d="M155.254,77.351a12.9,12.9,0,0,1,2.274-.56v-.663a3.575,3.575,0,0,1-1.68-2.714,1.224,1.224,0,0,1-.672-1.094,1.091,1.091,0,0,1,.034-.293,1.007,1.007,0,0,1,.508-.655l-.052-.741a3.689,3.689,0,0,1,1-2.8,3.772,3.772,0,0,1,5.514,0,3.7,3.7,0,0,1,1,2.8l-.052.741a1.015,1.015,0,0,1,.5.655,1.135,1.135,0,0,1,.034.293,1.224,1.224,0,0,1-.672,1.094,3.589,3.589,0,0,1-1.671,2.714v.663a12.1,12.1,0,0,1,2.266.56l.345.121a2.748,2.748,0,0,1,1.611,1.456.42.42,0,0,1,.034.095,2.546,2.546,0,0,1,.181,1.008V81.3a9.123,9.123,0,1,0-12.664,0V80.022a2.812,2.812,0,0,1,.181-1,1.013,1.013,0,0,1,.043-.095,2.748,2.748,0,0,1,1.611-1.456Z" transform="translate(-138.73 -62.447)" fill="#fff"/>
  <path id="Path_3790" data-name="Path 3790" d="M265.863,205.517c-.043-.009-.078-.009-.121-.017a1.7,1.7,0,0,1-.431.672l-.612.586.939.422Z" transform="translate(-243.274 -190.294)" fill="#fff"/>
  <path id="Path_3791" data-name="Path 3791" d="M273.57,209.039a1.851,1.851,0,0,0-1.1-.991l-.345-.121c-.362-.129-.741-.233-1.111-.327l-.284,2.18a.406.406,0,0,1-.215.319.459.459,0,0,1-.207.052.45.45,0,0,1-.181-.034l-.56-.258-.164.534.3,3.1a8.962,8.962,0,0,0,2.042-.577V211.6a.431.431,0,0,1,.862,0v.9a9.553,9.553,0,0,0,1.12-.724v-1.99a1.849,1.849,0,0,0-.129-.689C273.587,209.082,273.578,209.056,273.57,209.039Z" transform="translate(-247.569 -192.213)" fill="#fff"/>
  <path id="Path_3792" data-name="Path 3792" d="M216.826,117.609c-.009.009-.009.026-.017.034a.292.292,0,0,0-.009.086.369.369,0,0,0,.3.362.416.416,0,0,1,.362.4,2.714,2.714,0,1,0,5.428,0,.416.416,0,0,1,.362-.4.369.369,0,0,0,.3-.362.293.293,0,0,0-.009-.086l-.569.267a.463.463,0,0,1-.181.043.413.413,0,0,1-.31-.138.47.47,0,0,1-.1-.207l-.146-.612a3.241,3.241,0,0,0-1.042-1.7,3.427,3.427,0,0,1-2.8,1.068l-.086,1.068a.426.426,0,0,1-.172.319c-.155.112-.267.129-.991-.034A2.747,2.747,0,0,1,216.826,117.609Z" transform="translate(-199.501 -107.865)" fill="#fff"/>
  <path id="Path_3793" data-name="Path 3793" d="M316.1,431.253h15.206l-1.439-2.653-13.767.009Z" transform="translate(-290.246 -394.174)" fill="#fff"/>
  <path id="Path_3794" data-name="Path 3794" d="M351.244,345.57l7.642-.017-1.706-3.136-6.78-.017Z" transform="translate(-321.591 -315.4)" fill="#fff"/>
  <path id="Path_3795" data-name="Path 3795" d="M251.3,227.19l.112.448.681.017.129-.422L251.7,227Z" transform="translate(-231.029 -209.942)" fill="#fff"/>
  <path id="Path_3796" data-name="Path 3796" d="M246.15,192.894V192.3a3.662,3.662,0,0,1-2.05,0v.594a.814.814,0,0,0,.25.586l.767.741.775-.741A.789.789,0,0,0,246.15,192.894Z" transform="translate(-224.449 -178.232)" fill="#fff"/>
  <path id="Path_3797" data-name="Path 3797" d="M233.921,205.5c-.043.009-.078.009-.121.017l.215,1.663.939-.422-.612-.586A1.777,1.777,0,0,1,233.921,205.5Z" transform="translate(-215.036 -190.294)" fill="#fff"/>
  <path id="Path_3798" data-name="Path 3798" d="M196.181,210.216a.45.45,0,0,1-.181.034.433.433,0,0,1-.207-.052.42.42,0,0,1-.215-.319l-.284-2.18a9.7,9.7,0,0,0-1.111.327l-.345.121a1.851,1.851,0,0,0-1.1.991c-.009.017-.017.043-.026.06a1.671,1.671,0,0,0-.121.681v2.007a8.341,8.341,0,0,0,1.146.732v-.913a.431.431,0,1,1,.862,0v1.327a8.79,8.79,0,0,0,2.007.569l.388-3.136-.129-.543Z" transform="translate(-177.374 -192.305)" fill="#fff"/>
  <path id="Path_3799" data-name="Path 3799" d="M36.195,405.8l-13.664.009L19.8,410.418H35.747Z" transform="translate(-19.473 -373.338)" fill="#fff"/>
  <path id="Path_3800" data-name="Path 3800" d="M16,469.4H57.352v1.172H16Z" transform="translate(-16 -431.459)" fill="#fff"/>
  <path id="Path_3801" data-name="Path 3801" d="M71.12,346.909a.436.436,0,0,1,.319.138.448.448,0,0,1,.112.327l-.491,5.005h7.848l.009-3.076a.427.427,0,0,1,.431-.431l13.724-.009-1.387-2.541-8.434.017a.424.424,0,0,1-.414-.319l-1-3.713-2.5-.009a42.05,42.05,0,0,1-4.506,3.48.427.427,0,0,1-.465,0,41.638,41.638,0,0,1-4.48-3.455H60.231L57.5,346.918Zm-9.7-2.524h-.482a.431.431,0,1,1,0-.862h.482a.431.431,0,0,1,0,.862Zm7.03,0H63.229a.431.431,0,1,1,0-.862H68.45a.431.431,0,1,1,0,.862Z" transform="translate(-53.925 -315.309)" fill="#fff"/>
  <path id="Path_3802" data-name="Path 3802" d="M122.03,58.593a43.311,43.311,0,0,0,6.237-5.186c2.921-2.946,6.392-7.487,6.392-12.345,0-6.651-5.669-12.061-12.63-12.061S109.4,34.41,109.4,41.061c0,4.859,3.481,9.4,6.4,12.354A43.762,43.762,0,0,0,122.03,58.593Zm-9.985-17.316a9.985,9.985,0,1,1,9.985,9.994A10,10,0,0,1,112.045,41.277Z" transform="translate(-101.353 -29)" fill="#fff"/>
  <path id="Path_3803" data-name="Path 3803" d="M250.1,247.226l-.276-2.817-.569-.009-.353,2.826c.2.017.4.017.6.017A4.48,4.48,0,0,0,250.1,247.226Z" transform="translate(-228.835 -225.843)" fill="#fff"/>
</svg>
