<svg id="Group_685" data-name="Group 685" xmlns="http://www.w3.org/2000/svg" width="105.406" height="105.406" viewBox="0 0 105.406 105.406">
  <g id="Group_684" data-name="Group 684" transform="translate(0 0)">
    <circle id="Ellipse_37" data-name="Ellipse 37" cx="52.703" cy="52.703" r="52.703" transform="translate(0)" fill="#e9e9e9"/>
    <g id="user" transform="translate(25.372 21.31)">
      <path id="Path_2502" data-name="Path 2502" d="M167.786,93.571A16.786,16.786,0,1,0,151,76.786,16.8,16.8,0,0,0,167.786,93.571Z" transform="translate(-139.688 -60)" fill="#fff"/>
      <path id="Path_2503" data-name="Path 2503" d="M135.3,305.666A16.8,16.8,0,0,0,122.726,300H93.951a16.8,16.8,0,0,0-12.573,5.666l-1.137,1.284.848,1.491a31.34,31.34,0,0,0,54.5,0l.848-1.491Z" transform="translate(-80.241 -261.633)" fill="#fff"/>
    </g>
  </g>
</svg>
